<svg xmlns="http://www.w3.org/2000/svg" viewBox="0 0 512 512">
  <path d="M302.78 239.7c-4.43-4.42-11.62-4.42-16.05 0l-21.3 21.32c-2.94-1.1-6.12-1.7-9.43-1.7-3.3 0-6.5.6-9.43 1.7l-43.8-43.8c-4.42-4.42-11.6-4.42-16.04 0-4.43 4.44-4.43 11.62 0 16.06l43.8 43.8c-1.1 2.93-1.7 6.1-1.7 9.4 0 15 12.2 27.17 27.17 27.17 14.98 0 27.16-12.18 27.16-27.16 0-3.32-.6-6.5-1.7-9.43l21.32-21.3c4.43-4.44 4.43-11.63 0-16.06zM256 293.24c-3.7 0-6.73-3.03-6.73-6.74s3.02-6.74 6.73-6.74c3.72 0 6.74 3.02 6.74 6.73 0 3.7-3.03 6.73-6.74 6.73z"/>
  <path d="M389.96 114.46l12.86-18.36 51.54 36.1c1.92 1.34 4.2 2.04 6.5 2.04.66 0 1.32-.05 1.97-.17 2.97-.52 5.6-2.2 7.33-4.67 26-37.15 16.95-88.54-20.2-114.55C412.8-11.17 361.42-2.1 335.4 35.05c-3.6 5.13-2.34 12.2 2.8 15.8l46.03 32.23-12.86 18.37c-33.5-20.96-73.04-33.1-115.37-33.1s-81.87 12.14-115.36 33.1l-12.86-18.37 46.03-32.23c5.14-3.6 6.4-10.67 2.8-15.8C150.58-2.1 99.2-11.17 62.04 14.85c-37.15 26-46.2 77.4-20.2 114.55 1.73 2.47 4.36 4.15 7.33 4.67.65.1 1.3.17 1.97.17 2.3 0 4.6-.7 6.5-2.05l51.55-36.1 12.84 18.36c-51.2 39.95-84.17 102.2-84.17 172.03 0 75.92 39 142.9 98.02 181.98l-17.98 25.66c-3.6 5.14-2.35 12.2 2.8 15.8 1.97 1.4 4.24 2.06 6.48 2.06 3.58 0 7.1-1.7 9.3-4.84l19-27.1c30.1 15.68 64.27 24.56 100.5 24.56 36.22 0 70.4-8.88 100.5-24.57l18.98 27.1c2.2 3.16 5.73 4.85 9.3 4.85 2.25 0 4.52-.66 6.5-2.05 5.13-3.6 6.38-10.67 2.8-15.8L376.1 468.5c59.02-39.1 98.03-106.07 98.03-182 0-69.83-32.98-132.1-84.17-172.04zM361.4 39.4c20.08-19.43 51.82-22.57 75.55-5.96 23.72 16.6 31.62 47.5 20.24 73.03L361.4 39.4zM54.8 106.46c-11.37-25.52-3.46-56.42 20.26-73.03 10.38-7.27 22.28-10.75 34.08-10.75 15.17 0 30.17 5.76 41.47 16.7l-95.8 67.07zM256 481.93c-107.76 0-195.44-87.67-195.44-195.44S148.24 91.04 256 91.04s195.44 87.68 195.44 195.44S363.77 481.92 256 481.92z"/>
  <path d="M256 126.07c-88.45 0-160.42 71.97-160.42 160.42S167.55 446.9 256 446.9s160.42-71.95 160.42-160.4S344.46 126.06 256 126.06zm106.64 251l-7.66-7.65c-4.44-4.43-11.62-4.43-16.05 0-4.43 4.43-4.43 11.6 0 16.04l7.67 7.67c-21.74 18.5-49.16 30.47-79.25 32.9V415.1c0-6.25-5.08-11.33-11.35-11.33-6.26 0-11.34 5.08-11.34 11.34v10.93c-30.1-2.43-57.52-14.4-79.25-32.9l7.68-7.67c4.43-4.43 4.43-11.6 0-16.04-4.44-4.43-11.62-4.43-16.05 0l-7.67 7.66c-18.5-21.73-30.47-49.15-32.9-79.24h10.92c6.26 0 11.34-5.08 11.34-11.35 0-6.28-5.08-11.36-11.34-11.36h-10.9c2.4-30.08 14.4-57.5 32.88-79.24l7.67 7.66c2.2 2.22 5.12 3.33 8.02 3.33s5.8-1.12 8.02-3.34c4.43-4.43 4.43-11.6 0-16.04l-7.66-7.67c21.74-18.5 49.17-30.47 79.25-32.9v10.92c0 6.26 5.08 11.34 11.35 11.34s11.35-5.07 11.35-11.33v-10.92c30.1 2.43 57.5 14.4 79.24 32.9l-7.67 7.67c-4.43 4.43-4.43 11.6 0 16.04 2.2 2.22 5.12 3.33 8.02 3.33s5.8-1.12 8.02-3.34l7.67-7.66c18.5 21.73 30.47 49.16 32.9 79.24H384.6c-6.26 0-11.34 5.08-11.34 11.35s5.08 11.34 11.34 11.34h10.92c-2.43 30.1-14.4 57.5-32.9 79.24z"/>
</svg>
