<svg xmlns="http://www.w3.org/2000/svg" viewBox="0 0 512 512">
  <path d="M449.72 239.84c-.55-7.53-7.1-13.2-14.63-12.66-7.55.54-13.22 7.1-12.67 14.63.33 4.66.5 9.44.5 14.2 0 109.06-88.72 197.8-197.78 197.8S27.35 365.05 27.35 256 116.1 58.2 225.16 58.2c43.2 0 84.2 13.68 118.62 39.54 6.04 4.54 14.6 3.32 19.15-2.72 4.54-6.04 3.32-14.6-2.72-19.15-39.18-29.45-85.9-45.02-135.05-45.02C101 30.86 0 131.86 0 256s101 225.15 225.15 225.15S450.3 380.14 450.3 256c0-5.4-.2-10.85-.58-16.16z"/>
  <path d="M496.4 61.77c-20.8-20.8-54.67-20.8-75.48 0l-197.1 197.1L153.93 189c-20.8-20.8-54.67-20.8-75.48 0-20.8 20.8-20.8 54.67 0 75.48L198.8 384.82c6.9 6.9 15.95 10.34 25 10.34 9.07 0 18.12-3.45 25.02-10.34L496.4 137.24c20.8-20.8 20.8-54.66 0-75.47zm-19.35 56.13L229.47 365.48c-3.12 3.12-8.2 3.12-11.32 0L97.8 245.13c-10.13-10.14-10.13-26.64 0-36.78 5.08-5.07 11.74-7.6 18.4-7.6s13.32 2.53 18.4 7.6l71.87 71.88c4.64 4.64 10.8 7.2 17.34 7.2 6.56 0 12.72-2.57 17.35-7.2l199.12-199.1c10.14-10.16 26.64-10.16 36.78 0 10.14 10.13 10.14 26.63 0 36.77z"/>
</svg>
