<svg xmlns="http://www.w3.org/2000/svg" viewBox="0 0 417.92 417.92">
  <path d="M365.63 79.42C364.48 35.55 327.93 0 284.05 0h-1.42C264.8.1 248.38 9.46 238.7 25.05c-6.44 10.37-17.56 16.56-29.74 16.56s-23.3-6.18-29.73-16.55C169.53 9.46 153.1.1 135.3 0H133.86C90 0 53.44 35.55 52.3 79.42c-.24 9.04 1 17.95 3.67 26.54l29 90.6c0 35.46 7.53 89.4 24.15 125.25l37.25 80.42c3.2 9.32 11.73 15.6 21.35 15.7 6.1.03 11.83-2.27 16.16-6.56 4.33-4.3 6.7-10 6.7-16.1 0-.6-.07-1.2-.24-1.78-7.38-25.87-22.16-98.77-2.25-125.15 4.95-6.57 11.77-9.76 20.86-9.76 8.86 0 15.54 3.12 20.43 9.56 19.84 26.15 5.43 99.05-1.8 124.93-.16.57-.24 1.16-.24 1.75 0 11.77 9.32 22.1 20.78 23.04.64.05 1.27.08 1.9.08 9.64 0 18.22-6.05 21.4-15.26l37.42-80.9c16.58-35.84 24.08-89.72 24.1-125.2l29-90.65c2.67-8.53 3.9-17.44 3.67-26.48zM349.56 102l-29.3 91.57c-.2.65-.3 1.4-.3 2.08.1 34-7 86.27-22.9 120.65l-37.58 81.22c-.12.24-.22.48-.3.73-1.4 4.28-5.5 7-10 6.64-4.47-.38-8.42-4.64-8.8-9.33 2.97-11.02 25.97-100.2-.66-135.3-7.4-9.75-17.76-14.7-30.78-14.7-13.26 0-23.77 5.02-31.25 14.93-26.66 35.33-3.2 124.48-.14 135.54-.2 2.3-1.17 4.44-2.83 6.08-1.85 1.83-4.33 2.82-6.9 2.8-4.08-.04-7.88-2.96-9.23-7.1-.08-.26-.18-.5-.28-.74l-37.4-80.73c-14.57-31.44-21.78-77.83-22.83-111.57 17.8 5.82 60 17.58 110.86 17.58 25.25 0 51.56-2.98 78.17-8.86 3.5-.78 5.72-4.24 4.94-7.75-.77-3.5-4.24-5.72-7.74-4.94-3.2.7-6.38 1.37-9.55 2l14.17-35.98c1.32-3.34-.32-7.12-3.66-8.43-3.36-1.33-7.13.3-8.44 3.65l-17.08 43.34c-17.28 2.63-34.3 3.96-50.82 3.96-18.66 0-36.23-1.7-51.76-4.1l-17.04-43.2c-1.3-3.35-5.1-5-8.43-3.67-3.34 1.3-4.98 5.08-3.66 8.42l14.12 35.82c-22.68-4.45-39.2-9.87-45.52-12.1l-28.32-88.5c-2.24-7.17-3.27-14.67-3.07-22.28C66.24 42.88 97 13 133.86 13h1.37c13.3.06 25.63 7.13 32.94 18.9 8.83 14.22 24.07 22.7 40.78 22.7s31.95-8.48 40.78-22.7c1.88-3 4.1-5.72 6.56-8.1l16.02 16.93-18.78 26c-1.98 2.74-1.53 6.55 1.04 8.75l25.05 21.4-17.27 20.7c-2.3 2.74-1.94 6.84.8 9.14 1.23 1.02 2.7 1.52 4.18 1.52 1.86 0 3.7-.8 5-2.33l21.4-25.6c2.27-2.73 1.93-6.8-.77-9.1L267.6 69.5l16-22.2 21.95 4-3.9 16.5c-.84 3.48 1.32 7 4.8 7.82.5.12 1.02.18 1.52.18 2.94 0 5.6-2.02 6.32-5l5.5-23.17c.4-1.74.08-3.57-.9-5.06s-2.52-2.52-4.27-2.84L284 34.16l-16.8-17.74c4.83-2.2 10.07-3.4 15.5-3.42h1.04c37.05-.18 67.93 29.78 68.9 66.76.2 7.6-.85 15.1-3.07 22.24zm-7.05-16.63c-1.1 2.37-3.45 3.76-5.9 3.76-.9 0-1.85-.2-2.73-.6l-9.87-4.6c-3.26-1.5-4.67-5.38-3.15-8.63 1.5-3.25 5.38-4.67 8.63-3.15l9.87 4.58c3.25 1.52 4.67 5.38 3.15 8.64z"/>
</svg>
