<svg xmlns="http://www.w3.org/2000/svg" viewBox="0 0 417.92 417.92">
  <path d="M361.96 105.9c2.67-8.53 3.9-17.44 3.66-26.48C364.5 35.55 327.93 0 284.06 0h-1.42C264.8.1 248.38 9.46 238.7 25.05c-6.44 10.37-17.56 16.56-29.74 16.56s-23.3-6.18-29.73-16.55C169.53 9.46 153.1.1 135.3 0H133.86C90 0 53.44 35.55 52.3 79.42c-.24 9.04 1 17.95 3.67 26.54l6.26 19.58.02.06 22.7 70.96c.03 35.46 7.55 89.4 24.17 125.26l37.25 80.4c3.2 9.32 11.73 15.6 21.35 15.7h.2c6.03 0 11.68-2.33 15.96-6.56 4.33-4.3 6.7-10 6.7-16.1 0-.6-.07-1.2-.24-1.78-7.38-25.87-22.16-98.77-2.25-125.15 4.95-6.57 11.77-9.76 20.86-9.76 8.86 0 15.54 3.12 20.43 9.56 19.84 26.15 5.43 99.05-1.8 124.93-.16.57-.24 1.16-.24 1.75 0 11.77 9.32 22.1 20.78 23.04.64.06 1.27.08 1.9.08 9.64 0 18.22-6.05 21.4-15.26l37.42-80.9c16.58-35.83 24.08-89.72 24.1-125.2l25.44-79.5c0-.02 0-.04.02-.07l3.54-11.1zM65.3 79.77C66.24 42.88 97 13 133.86 13h1.37c13.3.06 25.63 7.13 32.94 18.9 8.83 14.22 24.07 22.7 40.78 22.7s31.95-8.48 40.78-22.7c7.3-11.77 19.63-18.84 32.94-18.9h1.36c36.9 0 67.63 29.9 68.6 66.76.2 7.6-.84 15.1-3.07 22.24l-2.2 6.84c-22.37 2.28-40.2 20.2-42.3 42.63-24.02 2.26-42.87 22.54-42.87 47.14v6.4c-18.1 2.9-35.93 4.36-53.24 4.36-6.5 0-12.9-.2-19.1-.58-.1-17.62-14.45-31.92-32.1-31.92h-2.03v-2.04c0-17.7-14.4-32.1-32.1-32.1h-2.7c-3-14.6-15.96-25.6-31.43-25.6H73.2l-4.84-15.08c-2.23-7.18-3.27-14.67-3.07-22.28zm12.05 50.37H89.5c10.53 0 19.1 8.57 19.1 19.1 0 3.6 2.9 6.5 6.5 6.5h8.53c10.53 0 19.1 8.56 19.1 19.1v8.53c0 3.6 2.9 6.5 6.5 6.5h8.54c10.12 0 18.4 7.92 19.03 17.9-40.03-3.94-70.89-13.96-80.12-17.22l-19.33-60.4zm242.92 63.44c-.2.65-.3 1.4-.3 2.08.1 34-7 86.27-22.9 120.65l-37.58 81.22c-.12.24-.22.48-.3.72-1.4 4.3-5.5 7.02-10 6.65-4.47-.38-8.42-4.64-8.8-9.33 2.98-11.03 25.97-100.2-.65-135.3-7.4-9.75-17.77-14.7-30.8-14.7-13.25 0-23.76 5.02-31.24 14.93-26.65 35.33-3.2 124.48-.14 135.54-.18 2.3-1.17 4.44-2.83 6.08-1.83 1.8-4.24 2.8-6.8 2.8h-.1c-4.08-.04-7.88-2.96-9.23-7.12-.08-.24-.18-.48-.28-.72l-37.4-80.73c-14.57-31.45-21.78-77.83-22.83-111.58 17.8 5.83 60 17.6 110.86 17.6 25.26 0 51.56-3 78.17-8.87 3.5-.78 5.72-4.25 4.95-7.75-.78-3.5-4.25-5.72-7.75-4.95-3.05.68-6.1 1.3-9.14 1.9v-4.1c0-18.93 15.4-34.34 34.34-34.34h1.82c3.6 0 6.5-2.9 6.5-6.5v-1.82c0-15.7 10.6-28.98 25.02-33.05l-22.6 70.67zM93.37 167.4c-1.22-1.2-1.9-2.9-1.9-4.6s.68-3.38 1.9-4.6 2.88-1.9 4.6-1.9 3.38.7 4.6 1.9c1.2 1.22 1.9 2.9 1.9 4.6 0 1.72-.7 3.4-1.9 4.6-1.22 1.2-2.9 1.9-4.6 1.9s-3.4-.7-4.6-1.9zm27.94 22.65c-1.2-1.2-1.9-2.88-1.9-4.6s.7-3.38 1.9-4.6c1.22-1.2 2.9-1.9 4.6-1.9 1.72 0 3.4.7 4.6 1.9s1.9 2.9 1.9 4.6-.7 3.4-1.9 4.6c-1.2 1.22-2.9 1.9-4.6 1.9s-3.38-.68-4.6-1.9zm186.76-13.7c1.2 1.22 1.9 2.9 1.9 4.6s-.7 3.4-1.9 4.6c-1.2 1.22-2.9 1.9-4.6 1.9s-3.4-.68-4.6-1.9c-1.2-1.2-1.9-2.88-1.9-4.6s.7-3.38 1.9-4.6 2.9-1.9 4.6-1.9 3.4.7 4.6 1.9z"/>
</svg>
