<svg xmlns="http://www.w3.org/2000/svg" viewBox="0 0 417.92 417.92">
  <path d="M380.4 319.03c-.3-.03-29.64-3.56-58.64-12.17-2.13-.63-4.2-1.28-6.2-1.93 7.72-22.33 12.73-48.54 15.3-72.48 32.55-11.48 63.8-24.17 63.8-49.1 0-30.4-28.27-45.78-41.1-51.2l8.4-26.24c2.66-8.53 3.9-17.44 3.65-26.48C364.48 35.55 327.9 0 284.05 0H282.6C264.8.1 248.4 9.46 238.7 25.05c-6.44 10.37-17.55 16.56-29.73 16.56s-23.3-6.18-29.73-16.55C169.52 9.46 153.1.1 135.28 0h-1.42C90 0 53.43 35.55 52.28 79.42c-.23 9.04 1 17.95 3.68 26.54l8.38 26.2c-12.84 5.43-41.1 20.8-41.1 51.2 0 24.9 31.26 37.6 63.8 49.1 2.58 23.9 7.6 50.13 15.33 72.47-1.97.64-4 1.27-6.07 1.9-29 8.6-58.5 12.17-58.78 12.2-3.57.43-6.12 3.66-5.7 7.22.4 3.3 3.2 5.74 6.45 5.74.26 0 .52-.03.77-.06 1.25-.14 30.77-3.7 60.82-12.62 2.46-.73 4.84-1.48 7.16-2.23.68 1.6 1.37 3.17 2.1 4.7l37.24 80.42c3.2 9.32 11.73 15.6 21.35 15.7h.22c6.02 0 11.67-2.33 15.95-6.56 4.32-4.3 6.7-10 6.7-16.1 0-.6-.08-1.2-.24-1.78-7.38-25.87-22.16-98.77-2.25-125.16 4.95-6.56 11.78-9.76 20.87-9.76 8.86 0 15.54 3.13 20.42 9.57 19.86 26.15 5.44 99.05-1.78 124.93-.17.57-.25 1.16-.25 1.75 0 11.77 9.32 22.1 20.78 23.04.63.05 1.27.08 1.9.08 9.63 0 18.22-6.05 21.4-15.26l37.42-80.9c.7-1.53 1.38-3.1 2.05-4.67 2.32.75 4.7 1.5 7.16 2.22 30.05 8.92 59.57 12.48 60.82 12.62.26.03.5.05.77.05 3.25 0 6.05-2.44 6.44-5.75.42-3.56-2.13-6.8-5.7-7.22zm-77.07-18.47c-23.8-9.4-36.66-20.46-36.66-31.86 0-12.8 25.72-22.73 50.6-31.48-2.63 21.28-7.2 43.9-13.94 63.34zm78.34-117.2c0 15-24.2 25.67-49.53 34.83.54-7.7.8-15 .8-21.64l16.63-51.93c10.72 4.77 32.1 17 32.1 38.73zm-345.42 0c0-21.72 21.35-33.95 32.08-38.72l16.6 51.92c.02 6.64.3 13.93.83 21.62-25.33-9.16-49.5-19.8-49.5-34.82zm64.4 53.85c24.87 8.77 50.6 18.7 50.6 31.5 0 11.4-12.86 22.46-36.65 31.86-6.74-19.44-11.33-42.06-13.95-63.35zm196.4 79.1l-37.58 81.22c-.1.24-.2.48-.28.73-1.4 4.28-5.5 7-10 6.64-4.48-.38-8.43-4.64-8.82-9.33 2.98-11.03 25.98-100.2-.65-135.3-7.4-9.75-17.76-14.7-30.78-14.7-13.26 0-23.77 5.02-31.25 14.93-26.67 35.33-3.2 124.48-.15 135.54-.18 2.3-1.17 4.44-2.83 6.08-1.85 1.83-4.3 2.82-6.9 2.8-4.08-.04-7.88-2.96-9.23-7.1l-.3-.74-37.4-80.73c-.55-1.2-1.1-2.42-1.63-3.66 29.86-11.8 44.98-26.54 44.98-44 0-23-31.58-34.08-65.1-45.78-.53-6.33-.9-12.42-1.07-18.15 17.8 5.83 60 17.6 110.87 17.6 25.26 0 51.56-3 78.17-8.87 3.5-.78 5.72-4.25 4.95-7.75-.78-3.5-4.25-5.72-7.75-4.95-3.2.7-6.37 1.37-9.55 2l14.17-35.98c1.32-3.34-.32-7.12-3.66-8.44-3.34-1.3-7.1.33-8.43 3.67l-17.08 43.34c-17.27 2.63-34.3 3.96-50.82 3.96-18.66 0-36.23-1.7-51.76-4.1l-17.04-43.2c-1.32-3.35-5.1-5-8.43-3.68-3.34 1.32-4.98 5.1-3.67 8.44l14.12 35.82c-22.67-4.45-39.18-9.87-45.5-12.1l-18.05-56.4-10.27-32.1c-2.24-7.18-3.28-14.67-3.08-22.28C66.24 42.88 96.98 13 133.86 13h1.36c13.32.06 25.64 7.13 32.95 18.9 8.83 14.22 24.07 22.7 40.78 22.7s31.95-8.48 40.77-22.7c7.32-11.77 19.64-18.84 32.95-18.9h1.36c36.9 0 67.63 29.9 68.6 66.76.2 7.6-.85 15.1-3.07 22.24l-29.3 91.57c-.2.65-.3 1.4-.3 2.08.02 8.2-.38 17.46-1.2 27.27-33.52 11.7-65.1 22.78-65.1 45.77 0 17.46 15.13 32.2 45 44-.53 1.2-1.06 2.42-1.6 3.6zM283.93 35.46h-.23c-3.58 0-6.5-2.9-6.5-6.47-.02-3.6 2.88-6.52 6.47-6.54h.26c31.47 0 57.68 25.5 58.5 56.96.1 3.6-2.73 6.58-6.32 6.67h-.17c-3.5 0-6.4-2.8-6.5-6.34-.63-24.47-21.02-44.3-45.5-44.3zm56.6 59.15c1.22 1.22 1.9 2.9 1.9 4.6s-.7 3.4-1.9 4.6c-1.2 1.22-2.9 1.9-4.6 1.9s-3.38-.68-4.6-1.9c-1.2-1.2-1.9-2.88-1.9-4.6s.7-3.38 1.9-4.6c1.2-1.2 2.9-1.9 4.6-1.9s3.4.7 4.6 1.9z"/>
</svg>
