<svg xmlns="http://www.w3.org/2000/svg" viewBox="0 0 512 512">
  <path d="M397.74 78.38c6.82 0 12.35-5.53 12.35-12.36v-39C410.1 12.13 397.97 0 383.07 0H121.64c-3.28 0-6.42 1.3-8.74 3.62L10.53 106c-2.32 2.3-3.62 5.46-3.62 8.73v370.24c0 14.9 12.13 27.03 27.04 27.03h349.14c14.9 0 27-12.13 27-27.03V296.3c0-6.84-5.52-12.37-12.34-12.37-6.83 0-12.36 5.53-12.36 12.36v188.67c0 1.28-1.03 2.3-2.3 2.3H33.94c-1.28 0-2.32-1.02-2.32-2.3V127.1h75.36c14.9 0 27.02-12.13 27.02-27.02V24.72h249.08c1.27 0 2.3 1.03 2.3 2.3v39c0 6.83 5.53 12.36 12.36 12.36zm-288.46 21.7c0 1.26-1.03 2.3-2.3 2.3H49.1L109.3 42.2v57.88z"/>
  <path d="M492.87 100.4L478.3 85.86c-16.3-16.3-42.83-16.3-59.13 0L303.75 201.28h-200.2c-6.83 0-12.36 5.53-12.36 12.36 0 6.82 5.53 12.36 12.36 12.36h175.5l-74.4 74.38h-101.1c-6.83 0-12.36 5.53-12.36 12.35s5.53 12.36 12.36 12.36h76.4l-.2.2c-1.52 1.5-2.6 3.37-3.18 5.42l-19.1 68.75h-53.92c-6.83 0-12.36 5.53-12.36 12.36s5.53 12.36 12.36 12.36h63.33s2.7-.32 3.1-.42l78-21.65c2.05-.57 3.92-1.66 5.43-3.16l239.44-239.44c16.3-16.3 16.3-42.83 0-59.13zM184.63 394.07l10.1-36.32L220.96 384l-36.33 10.07zm60.05-21.32l-38.73-38.72 197.65-197.65 38.72 38.72L244.7 372.75zm230.7-230.7l-15.58 15.57-38.73-38.72 15.56-15.57c6.67-6.67 17.52-6.67 24.2 0l14.53 14.54c6.65 6.67 6.65 17.52 0 24.18z"/>
</svg>
