<svg xmlns="http://www.w3.org/2000/svg" viewBox="0 0 417.92 417.92">
  <path d="M277.66 191.92c22.37-22.37 22.37-58.76 0-81.13-10.84-10.85-25.24-16.82-40.57-16.82-15.33 0-29.74 5.97-40.58 16.8-22.36 22.37-22.36 58.77 0 81.14 11.2 11.2 25.88 16.78 40.57 16.78 14.68 0 29.37-5.6 40.56-16.78zm-40.57-84.94c11.84 0 23 4.62 31.37 13 2.47 2.47 4.57 5.17 6.34 8.02h-75.43c1.77-2.85 3.87-5.55 6.35-8.02 8.38-8.38 19.52-13 31.37-13zM193.95 141h86.26c.83 3.5 1.24 7.07 1.2 10.64h-57.78c-3.6 0-6.5 2.9-6.5 6.5s2.9 6.5 6.5 6.5h55.77c-2.06 6.62-5.7 12.86-10.93 18.1-17.3 17.3-45.45 17.3-62.75 0-11.3-11.3-15.22-27.23-11.76-41.74zm195.3 136.54L340.8 229.1c-2.53-2.54-6.65-2.54-9.18 0l-3.63 3.62-20.96-20.96c.27-5.33.42-10.44.42-15.2l29-90.64c2.67-8.55 3.9-17.46 3.66-26.5C338.98 35.55 302.42 0 258.55 0H257.1C239.3.1 222.88 9.46 213.2 25.07c-6.45 10.36-17.56 16.55-29.74 16.55s-23.3-6.18-29.73-16.54C144.03 9.46 127.6.08 109.8 0H108.36C64.5 0 27.94 35.55 26.8 79.42c-.24 9.04 1 17.95 3.67 26.54l28.98 90.6c.03 35.46 7.55 89.4 24.17 125.25l37.25 80.42c3.2 9.32 11.73 15.6 21.34 15.7h.23c6 0 11.67-2.33 15.95-6.56 4.32-4.3 6.7-10 6.7-16.1 0-.6-.08-1.2-.24-1.78-7.37-25.88-22.15-98.8-2.25-125.16 4.95-6.56 11.77-9.75 20.86-9.75 8.86 0 15.54 3.12 20.42 9.56 19.86 26.15 5.44 99.05-1.78 124.93-.16.57-.24 1.16-.24 1.75 0 11.77 9.32 22.1 20.78 23.04.63.06 1.27.08 1.9.08 9.63 0 18.22-6.05 21.4-15.26l37.42-80.9c12.07-26.1 19.32-61.75 22.4-92.9l13.04 13.05-3.97 3.98c-2.53 2.54-2.53 6.65 0 9.2l48.45 48.44c1.27 1.27 2.93 1.9 4.6 1.9s3.32-.63 4.6-1.9l16.77-16.78c2.54-2.54 2.54-6.66 0-9.2zm-199.88-78.48c-12.75-12.74-19.77-29.68-19.77-47.7 0-18.03 7.03-34.97 19.78-47.72 12.74-12.74 29.7-19.76 47.7-19.76s34.98 7.02 47.72 19.76c12.75 12.75 19.76 29.7 19.76 47.7 0 18.04-7 34.98-19.76 47.73-12.74 12.74-29.7 19.76-47.7 19.76s-34.98-7.02-47.72-19.77zM42.86 102.05c-2.24-7.18-3.27-14.67-3.07-22.28C40.74 42.88 71.47 13 108.36 13h1.36c13.32.06 25.64 7.13 32.95 18.9 8.83 14.22 24.07 22.7 40.78 22.7s31.95-8.48 40.77-22.7c7.32-11.77 19.63-18.84 32.95-18.9h1.36c36.9 0 67.63 29.9 68.6 66.76.2 7.6-.85 15.1-3.07 22.24l-9.18 28.7c-3.6-13.6-10.7-26.05-20.9-36.25-15.2-15.2-35.4-23.57-56.9-23.57s-41.7 8.37-56.9 23.57c-15.2 15.2-23.58 35.4-23.58 56.9s8.37 41.7 23.57 56.9c.36.38.75.73 1.14 1.1-17.87-.12-34.7-1.77-49.64-4.08l-17.04-43.22c-1.3-3.34-5.1-4.98-8.43-3.66-3.34 1.3-4.98 5.08-3.66 8.42l14.12 35.82c-22.68-4.45-39.2-9.87-45.52-12.1l-28.32-88.5zm228.7 214.26l-37.58 81.22c-.1.24-.2.48-.28.72-1.4 4.3-5.5 7.02-10 6.65-4.47-.38-8.42-4.64-8.8-9.33 2.97-11.03 25.97-100.2-.66-135.3-7.4-9.75-17.76-14.7-30.78-14.7-13.26 0-23.77 5.02-31.25 14.93-26.66 35.33-3.2 124.48-.14 135.54-.2 2.3-1.17 4.44-2.83 6.08-1.85 1.83-4.24 2.8-6.9 2.8-4.1-.04-7.88-2.96-9.23-7.12-.08-.24-.18-.48-.3-.72l-37.4-80.73c-14.55-31.44-21.76-77.83-22.8-111.58 17.8 5.83 60 17.6 110.86 17.6 4.94 0 10-.15 15.03-.38 11.7 6.4 24.88 9.83 38.6 9.83 19.44 0 37.83-6.88 52.42-19.45.25.4.56.8.9 1.16l3.3 3.3c-2.18 32.1-9.3 71.63-22.16 99.46zm96.32-26.57l-39.26-39.26 3.97-3.96 3.6-3.6 39.27 39.24-7.6 7.6z"/>
</svg>
