<svg xmlns="http://www.w3.org/2000/svg" viewBox="0 0 408.43 408.43">
  <path d="M360.88 79.42C359.74 35.55 323.18 0 279.3 0h-1.42c-17.82.08-34.24 9.45-43.93 25.06-6.44 10.36-17.55 16.55-29.73 16.55s-23.3-6.18-29.74-16.54C164.78 9.46 148.38.1 130.55 0h-1.42C85.26 0 48.7 35.55 47.55 79.42c-.23 9.04 1 17.95 3.68 26.54l29.3 91.57v.02c.1.3.22.58.36.86l.07.2c.14.25.3.5.47.74l.12.16c.17.22.35.44.55.64.03 0 .04.03.06.05.2.2.44.4.68.57l.16.1c.24.18.5.34.76.47l.1.04c.16.08.32.16.48.22 1.36.53 22.07 8.54 53.62 14.45v32.1c-2.64.27-4.95 2.13-5.65 4.84-.9 3.47 1.2 7.02 4.68 7.92l.98.24v24.4c-2.64.26-4.95 2.12-5.65 4.83-.9 3.46 1.2 7 4.68 7.9.32.1.65.17.98.25v24.4c-2.64.26-4.95 2.12-5.65 4.83-.9 3.48 1.2 7.02 4.68 7.92l.98.25v29.87c-.07 1.03.1 2.03.5 2.95l.1.26.2.35c.06.1.1.22.17.33l19.27 31.1c.92 1.5 2.4 2.55 4.12 2.93 14.14 3.12 28.23 4.7 41.9 4.7 13.53 0 27.62-1.6 41.87-4.74 1.7-.4 3.2-1.45 4.1-2.94l19.28-31.1c.64-1.04.97-2.22.97-3.43v-30.36l.98-.24c3.48-.9 5.57-4.45 4.67-7.92-.7-2.7-3.02-4.56-5.65-4.83v-24.4c.33-.07.66-.15.98-.24 3.48-.9 5.57-4.44 4.67-7.92-.7-2.7-3.02-4.56-5.65-4.82v-24.4c.33-.07.66-.15.98-.24 3.48-.9 5.57-4.44 4.67-7.92-.7-2.7-3-4.57-5.65-4.83v-32.04c31.56-5.9 52.3-13.92 53.65-14.46h.02l.26-.12c.48-.22.92-.48 1.32-.8.02 0 .03 0 .05-.03l.35-.3.13-.12c.1-.08.18-.18.26-.27l.17-.2c.07-.07.12-.15.18-.23.07-.1.15-.18.2-.27.06-.06.1-.13.13-.2.08-.1.15-.22.22-.34l.08-.16c.1-.2.2-.4.27-.6l.15-.4v-.03l29.32-91.6c2.67-8.56 3.9-17.47 3.66-26.5zM257.45 364.38l-16.84 27.18c-12.4 2.57-24.64 3.87-36.4 3.87-11.85 0-24.1-1.28-36.4-3.83l-9.88-15.92c15.63 2.82 31.15 4.25 46.3 4.25 6.98 0 14.18-.32 21.4-.96 3.58-.3 6.22-3.46 5.9-7.04-.3-3.57-3.46-6.23-7.03-5.9-6.86.6-13.68.9-20.3.9-17.34 0-35.24-2-53.25-5.9v-22.1c18 3.73 35.85 5.6 53.26 5.6 17.3 0 35.15-1.9 53.25-5.65v25.5zm0-38.8c-18.14 3.96-36 5.96-53.23 5.96-17.38 0-35.25-1.98-53.27-5.88v-24.1c18 3.7 35.85 5.6 53.26 5.6 17.3 0 35.15-1.92 53.25-5.67v24.1zm0-37.38c-18.14 3.95-36 5.95-53.23 5.95-17.38 0-35.25-1.98-53.27-5.88v-24.1c18 3.7 35.85 5.6 53.26 5.6 17.3 0 35.15-1.92 53.25-5.67v24.1zm0-37.4c-18.14 3.95-36 5.96-53.23 5.96-17.38 0-35.25-1.98-53.27-5.9v-32.6c15.94 2.4 33.98 4.1 53.27 4.1 19.27 0 37.3-1.7 53.23-4.1v32.55zM344.83 102l-28.33 88.54c-6.43 2.27-23.32 7.8-46.48 12.3l14.2-36.02c1.3-3.34-.33-7.12-3.67-8.44-3.34-1.3-7.12.33-8.43 3.67l-17.1 43.37c-15.3 2.32-32.53 3.94-50.8 3.94-18.66 0-36.23-1.7-51.76-4.1l-17.04-43.2c-1.3-3.35-5.1-5-8.43-3.68-3.35 1.32-5 5.1-3.67 8.44l14.12 35.82c-22.67-4.45-39.18-9.87-45.5-12.1l-28.33-88.5c-2.24-7.18-3.27-14.67-3.07-22.28C61.5 42.88 92.25 13 129.13 13h1.36c13.3.06 25.63 7.13 32.94 18.9 8.83 14.22 24.07 22.7 40.78 22.7s31.95-8.48 40.77-22.7c7.3-11.77 19.63-18.84 32.94-18.9h1.36c36.9 0 67.62 29.9 68.6 66.76.18 7.6-.85 15.1-3.07 22.24z"/>
</svg>
