<svg xmlns="http://www.w3.org/2000/svg" viewBox="0 0 32 32">
  <path fill-rule="evenodd" d="M21 26v2c0 1.1-.9 2-2 2H4c-1.1 0-2-.9-2-2V5c0-1.1.9-2 2-2h10v6c0 1.1.9 2 2 2h5v2h-9c-1.65 0-3 1.34-3 3v7c0 1.66 1.34 3 3 3h9zM15 3v6c0 .55.45 1 1 1h5l-6-7zm-3 11c-1.1 0-2 .9-2 2v7c0 1.1.9 2 2 2h17c1.1 0 2-.9 2-2v-7c0-1.1-.9-2-2-2H12zm13 5v-2h4v-1h-5v7h1v-3h3v-1h-3zm-13-1v5h1v-3h2c1.1 0 2-.9 2-2s-.9-2-2-2h-3v2zm1-1v2h2c.55 0 1-.44 1-1 0-.55-.44-1-1-1h-2zm5-1v7h3c1.1 0 2-.9 2-2v-3c0-1.1-.9-2-2-2h-3zm1 1v5h2c.55 0 1-.44 1-1v-3c0-.55-.44-1-1-1h-2z"/>
</svg>
