<svg xmlns="http://www.w3.org/2000/svg" viewBox="0 0 512 512">
  <path d="M472.08 81.12c-26.96-27.57-63.02-42.76-101.55-42.76-37.93 0-73.6 14.78-100.42 41.6l-13.83 13.86-13.86-13.86c-26.82-26.82-62.47-41.6-100.4-41.6-37.92 0-73.6 14.78-100.4 41.6C14.76 106.78 0 142.44 0 180.36s14.77 73.6 41.6 100.42l177.47 177.48c10.26 10.25 23.72 15.38 37.2 15.38 13.45 0 26.92-5.13 37.17-15.38l176.34-176.32c55.38-55.4 56.42-145.47 2.3-200.82zm-20.9 182.23L274.85 439.67c-10.26 10.25-26.94 10.25-37.2 0L60.2 262.2c-21.85-21.87-33.9-50.92-33.9-81.83s12.05-59.97 33.9-81.82C82.04 76.7 111.1 64.65 142 64.65c30.9 0 59.96 12.04 81.82 33.9l13.86 13.87-21.23 21.25c-5.13 5.13-5.13 13.45 0 18.6 2.57 2.55 5.93 3.83 9.3 3.83 3.36 0 6.73-1.28 9.3-3.85l53.65-53.7c21.86-21.86 50.92-33.9 81.83-33.9 31.4 0 60.78 12.38 82.75 34.85 44.1 45.1 43.15 118.6-2.1 163.85z"/>
  <path d="M466.3 174.4c-1.45-23.38-11.36-45.36-27.9-61.9-11.7-11.72-26.25-20.23-42.03-24.62-7-1.95-14.24 2.15-16.2 9.14-1.93 7 2.16 14.24 9.16 16.2 11.42 3.17 21.96 9.35 30.48 17.86 12 12 19.2 27.97 20.25 44.94.43 6.97 6.22 12.34 13.1 12.34.28 0 .56 0 .83-.03 7.25-.44 12.76-6.68 12.3-13.93z"/>
</svg>
