<svg xmlns="http://www.w3.org/2000/svg" viewBox="0 0 417.92 417.92">
  <path d="M365.63 79.42C364.48 35.55 327.93 0 284.07 0h-1.5c-5.17.04-10.27.86-15.17 2.43-11.8 3.77-21.98 11.8-28.7 22.62-6.45 10.37-17.56 16.56-29.74 16.56-7.44 0-14.47-2.3-20.3-6.47l-.2-.15c-3.63-2.63-6.77-5.97-9.23-9.93-.42-.68-.85-1.34-1.3-2-6.7-9.8-16.36-17.1-27.4-20.62h-.02C145.6.85 140.53.03 135.37 0h-1.48C90 0 53.44 35.55 52.28 79.42c-.22 9.03 1 17.95 3.7 26.54l28.98 90.6c.02 35.3 7.58 89.48 24.16 125.25l37.25 80.42c3.2 9.3 11.73 15.6 21.35 15.7h.2c6.03 0 11.7-2.33 15.96-6.57 4.33-4.28 6.7-10 6.7-16.1 0-.6-.07-1.2-.24-1.77-7.37-25.88-22.14-98.8-2.25-125.15 4.95-6.57 11.77-9.76 20.86-9.76 8.87 0 15.55 3.13 20.43 9.56 19.84 26.16 5.43 99.05-1.8 124.93-.16.57-.24 1.16-.24 1.75 0 11.77 9.32 22.1 20.77 23.04 10.4.87 19.92-5.36 23.3-15.18l37.43-80.9c16.58-35.83 24.08-89.72 24.1-125.2l29-90.6v-.05c2.67-8.53 3.9-17.45 3.67-26.48zM231.6 77.65c-2.53-2.54-6.64-2.54-9.18 0l-18.27 18.27c-2.84-.23-5.62-.65-8.33-1.26l71.6-71.6c.6 2.74 1.04 5.5 1.26 8.33l-28.9 28.9c-2.54 2.53-2.54 6.64 0 9.18 1.27 1.27 2.94 1.9 4.6 1.9 1.66 0 3.33-.63 4.6-1.9l17.88-17.9c-5.5 20.7-21.83 37.04-42.53 42.54l7.28-7.28c2.55-2.54 2.55-6.65 0-9.2zm-55.4 8.7l31.76-31.77c.33 0 .66.03 1 .03 3.22 0 6.38-.3 9.46-.92l-36.15 36.15c-2.1-1.05-4.13-2.2-6.08-3.5zm-23.8-69.1c.72.36 1.43.74 2.12 1.16l.1.08c.67.4 1.32.82 1.96 1.25l.44.3c.65.47 1.3.94 1.9 1.44.12.08.2.17.3.25.57.45 1.12.92 1.65 1.4l.35.33c.6.54 1.16 1.1 1.72 1.7.02 0 .05.04.08.07l-13.9 13.9c-.04-.96-.07-1.93-.07-2.9 0-6.6 1.04-13 3.1-19.1l.25.12zm18.47 18.5c1.38 1.82 2.87 3.53 4.47 5.1l-20.67 20.67c-1.03-2.2-1.94-4.5-2.7-6.86l18.9-18.9zm-9.2 37.17l24.2-24.2c2.1 1.16 4.32 2.14 6.6 2.97L166.1 78.03c-1.56-1.62-3.05-3.33-4.44-5.12zm187.9 29.1l-29.3 91.55c-.2.64-.3 1.3-.3 1.98v.1c.1 34.02-7 86.28-22.9 120.65l-37.58 81.22c-.12.24-.2.48-.3.73-1.38 4.28-5.5 7-10 6.63-4.47-.36-8.42-4.62-8.8-9.3 2.98-11.04 25.98-100.2-.65-135.3-7.4-9.76-17.76-14.7-30.8-14.7-13.25 0-23.76 5-31.24 14.92-26.65 35.34-3.2 124.48-.14 135.54-.18 2.3-1.17 4.44-2.83 6.08-1.84 1.83-4.27 2.83-6.9 2.8-4.08-.04-7.88-2.97-9.23-7.12-.08-.25-.17-.5-.28-.72l-37.4-80.73C106.4 285 99.15 238.42 98.1 204.78c17.8 5.83 60 17.58 110.86 17.58 25.26 0 51.56-2.98 78.17-8.86 3.5-.78 5.72-4.25 4.95-7.75-.78-3.5-4.24-5.72-7.75-4.95-3.2.7-6.37 1.37-9.55 2l14.18-35.98c1.3-3.34-.33-7.12-3.67-8.43-3.35-1.33-7.12.3-8.44 3.65l-17.08 43.34c-17.27 2.63-34.3 3.96-50.82 3.96-18.66 0-36.23-1.7-51.76-4.1l-17.03-43.2c-1.32-3.35-5.1-5-8.43-3.68-3.34 1.32-4.98 5.1-3.67 8.44l14.12 35.82c-22.67-4.45-39.18-9.87-45.52-12.1l-28.3-88.5c-2.25-7.18-3.3-14.68-3.1-22.28C66.26 42.88 97 13 133.92 13H135.24c1.5.02 3 .14 4.5.33-2.45 7.33-3.68 15-3.68 22.9 0 6.1.76 12 2.18 17.66.06.34.15.68.26 1.02 1.92 7.24 4.93 14.03 8.85 20.2.2.43.46.84.77 1.22 3.75 5.66 8.26 10.76 13.4 15.17l.14.18c.3.28.6.53.9.75 5.5 4.54 11.66 8.28 18.32 11.07.28.13.56.25.84.33 8.43 3.4 17.6 5.3 27.24 5.3 40.2 0 72.9-32.7 72.9-72.9 0-.68-.03-1.35-.04-2.02 0-.3 0-.63-.03-.95-.28-6.84-1.47-13.5-3.6-19.92 1.5-.2 2.98-.3 4.5-.32h1.33c36.9 0 67.63 29.9 68.6 66.76.2 7.6-.84 15.1-3.08 22.27z"/>
</svg>
