<svg xmlns="http://www.w3.org/2000/svg" viewBox="0 0 112.2 112.2"><circle cx="56.1" cy="56.1" r="56.1" fill="#6A453B"/><path fill="#FFF" d="M79 22.5H33c-5.8 0-10.5 4.7-10.5 10.6v46c0 6 4.7 10.7 10.6 10.7h46c6 0 10.7-4.7 10.7-10.6V33c0-5.8-4.7-10.5-10.6-10.5zm-7 7.8h8.4c1 0 1.5.6 1.5 1.4v8.5c0 .8-.7 1.4-1.5 1.4H72c-.8 0-1.4-.6-1.4-1.4v-8.5c0-.8.6-1.4 1.4-1.4zm-26.2 20l.7-1c2.2-3 5.7-5 9.6-5 4 0 7.5 2 9.7 5l.7 1C67.4 52 68 54 68 56c0 6.6-5.4 12-12 12-6.4 0-11.7-5.4-11.7-12 0-2 .5-4 1.5-5.7zM83 76.7c0 3.6-2.7 6.4-6.3 6.4H35.5C32 83 29 80.4 29 76.8V49.2h10l-.6 2c-.4 1.5-.7 3.2-.7 5 0 10 8.3 18.3 18.4 18.3 10.2 0 18.5-8.3 18.5-18.4 0-1.6-.3-3.3-.7-5l-.7-1.8h10v27.5z"/></svg>
