<svg xmlns="http://www.w3.org/2000/svg" viewBox="0 0 512 512">
  <circle cx="110.2" cy="394.61" r="17.3"/>
  <path d="M501.62 301.27c0-8.5-2.63-16.4-7.12-22.93C505.06 271 512 258.8 512 245c0-22.4-18.2-40.6-40.58-40.6h-106.7l6.76-15.15c9.88-22.15 14.92-45.7 14.97-69.95l.06-29.77c0-23-18.7-41.7-41.7-41.7-17.1 0-32.28 10.23-38.7 26.08-.27.7-9.98 29.3-9.98 29.3-8.75 25.44-24.28 48-44.9 65.25l-49.5 41.4h-28.6V196.8c0-13.73-11.17-24.9-24.9-24.9H24.9C11.15 171.9 0 183.08 0 196.8v242.5c0 13.72 11.16 24.88 24.9 24.88H148.2c13.72 0 24.9-11.16 24.9-24.88v-19.48h15.6l15.52 7.5c36.7 17.73 77.62 27.1 118.36 27.1H440.27c22.38 0 40.6-18.2 40.6-40.58 0-8.5-2.65-16.4-7.13-22.93 10.56-7.32 17.5-19.53 17.5-33.34 0-8.5-2.64-16.4-7.12-22.93 10.56-7.34 17.5-19.55 17.5-33.36zM148.22 439.3H24.9V196.8H148.2l.02 242.5h-.02zm323.2-178.6h-17.7c-6.88 0-12.45 5.56-12.45 12.43s5.57 12.44 12.44 12.44h7.34c8.65 0 15.7 7.05 15.7 15.7s-7.05 15.7-15.7 15.7h-17.7c-6.88 0-12.45 5.57-12.45 12.45s5.56 12.44 12.43 12.44h7.33c8.65 0 15.7 7.04 15.7 15.7 0 8.65-7.05 15.7-15.7 15.7h-17.7c-6.88 0-12.45 5.57-12.45 12.44s5.58 12.44 12.45 12.44h7.33c8.65 0 15.7 7.05 15.7 15.7 0 8.66-7.05 15.7-15.7 15.7H322.6c-37 0-74.2-8.52-107.53-24.63L197 396.18c-1.7-.8-3.54-1.24-5.42-1.24H173.1v-160.2h33.14c2.92 0 5.74-1.02 7.98-2.9l52.96-44.3c24.1-20.15 42.24-46.52 52.47-76.23l9.96-29c2.8-5.87 8.65-9.6 15.2-9.6 9.28 0 16.83 7.55 16.83 16.83l-.07 29.72c-.04 20.76-4.35 40.9-12.8 59.87l-14.5 32.5c-1.27 2.85-1.37 5.92-.53 8.7.07.23 2.76 8.97 11.95 8.97h125.74c8.66 0 15.7 7.03 15.7 15.7 0 8.65-7.05 15.7-15.7 15.7z"/>
</svg>
