<svg xmlns="http://www.w3.org/2000/svg" viewBox="0 0 454.4 454.4">
  <path d="M402 68.46l-50.82-12.7-12.7-50.84c-.73-2.9-3.33-4.92-6.3-4.92s-5.6 2.03-6.32 4.92L315.8 45.2c-11.42-5.78-24-8.77-36.92-8.72h-1.05c-17.82.1-34.24 9.45-43.93 25.06-6.44 10.36-17.55 16.55-29.74 16.55s-23.3-6.2-29.73-16.56c-9.7-15.6-26.1-24.97-43.93-25.05l-1.06-.02h-.36c-43.88 0-80.44 35.56-81.58 79.43-.24 9.04 1 17.95 3.67 26.54l29 90.6c0 35.47 7.54 89.4 24.15 125.26l37.25 80.4c3.2 9.32 11.74 15.6 21.35 15.7 6.12.07 11.84-2.27 16.16-6.56 4.33-4.3 6.7-10 6.7-16.1 0-.6-.07-1.2-.23-1.78-7.38-25.86-22.17-98.77-2.26-125.15 4.95-6.56 11.78-9.75 20.86-9.75 8.87 0 15.55 3.13 20.43 9.56 19.84 26.17 5.43 99.06-1.8 124.95-.16.56-.24 1.15-.24 1.75 0 11.75 9.33 22.08 20.78 23.03.64.05 1.27.07 1.9.07 9.64 0 18.22-6.05 21.4-15.26l37.43-80.9c16.57-35.83 24.08-89.72 24.1-125.2l29-90.64c2.66-8.55 3.9-17.46 3.66-26.5-.2-8.05-1.6-15.93-4.13-23.5L402 81.07c2.9-.72 4.93-3.32 4.93-6.3s-2.03-5.58-4.92-6.3zm-57.43 13.57c-2.42.48-4.43 2.3-5.06 4.8l-7.34 29.4-2.48-9.92c-.87-3.47-4.4-5.6-7.88-4.72-3.48.87-5.6 4.4-4.73 7.9l8.8 35.13c.7 2.9 3.3 4.93 6.3 4.93s5.58-2.03 6.3-4.92l8.82-35.3c.3 2.3.47 4.6.53 6.94.2 7.6-.83 15.1-3.06 22.24l-29.3 91.57c-.2.65-.3 1.4-.3 2.08.1 34-7 86.28-22.9 120.65L254.7 434c-.12.24-.2.48-.3.73-1.38 4.28-5.5 7-10 6.64-4.46-.37-8.4-4.63-8.8-9.32 2.98-11.03 25.98-100.2-.65-135.3-7.4-9.75-17.76-14.7-30.8-14.7-13.24 0-23.76 5.02-31.23 14.93-26.67 35.33-3.2 124.48-.16 135.54-.18 2.3-1.17 4.44-2.83 6.08-1.84 1.83-4.28 2.82-6.9 2.8-4.08-.04-7.88-2.96-9.22-7.1-.07-.26-.17-.5-.28-.74l-37.4-80.73C101.55 321.4 94.34 275 93.3 241.26c17.8 5.82 60 17.58 110.87 17.58 25.25 0 51.55-2.98 78.17-8.86 3.5-.78 5.72-4.24 4.94-7.75-.77-3.5-4.24-5.72-7.75-4.94-3.18.7-6.37 1.35-9.55 1.97l14.18-35.97c1.32-3.34-.32-7.12-3.66-8.43s-7.12.32-8.43 3.66L255 241.87c-17.3 2.64-34.3 3.97-50.83 3.97-18.66 0-36.23-1.7-51.76-4.1l-17.03-43.2c-1.3-3.35-5.1-5-8.43-3.67-3.34 1.3-4.98 5.1-3.66 8.43l14.12 35.82c-22.67-4.45-39.18-9.87-45.52-12.1l-28.3-88.5c-2.25-7.17-3.28-14.67-3.08-22.28.96-36.98 31.9-66.93 68.88-66.76h1.06c13.32.07 25.64 7.14 32.95 18.92 8.8 14.2 24.06 22.7 40.77 22.7s31.95-8.5 40.77-22.7c7.3-11.78 19.63-18.85 32.95-18.9l1.04-.02h.3c10.6 0 20.95 2.46 30.37 7.16l-47.28 11.82c-2.9.73-4.92 3.33-4.92 6.3 0 3 2.03 5.6 4.92 6.32l41.2 10.3c3.5.87 7.02-1.25 7.9-4.73.86-3.5-1.26-7.02-4.74-7.9l-15.98-3.98 29.06-7.27c2.43-.47 4.44-2.3 5.06-4.8l7.35-29.4 7.26 29.07c.48 2.4 2.3 4.43 4.8 5.05l29.4 7.35-29.06 7.26z"/>
</svg>
