<svg xmlns="http://www.w3.org/2000/svg" viewBox="0 0 512 512">
  <path d="M256 418.13c-15.66 0-28.4 12.74-28.4 28.4s12.74 28.4 28.4 28.4 28.4-12.73 28.4-28.4-12.74-28.4-28.4-28.4zm0 37.14c-4.8 0-8.73-3.92-8.73-8.73s3.92-8.74 8.73-8.74c4.82 0 8.74 3.92 8.74 8.74 0 4.8-3.93 8.73-8.74 8.73zM302.6 40.45h-50.42c-5.73 0-10.38 4.64-10.38 10.38 0 5.73 4.65 10.38 10.38 10.38h50.4c5.74 0 10.4-4.64 10.4-10.37 0-5.73-4.66-10.38-10.4-10.38z"/>
  <circle cx="220.31" cy="51.09" r="10.9"/>
  <path d="M377.1 0H134.9c-18.08 0-32.8 14.7-32.8 32.78v446.44c.02 18.07 14.72 32.78 32.8 32.78h242.2c18.08 0 32.78-14.7 32.78-32.8V32.8C409.88 14.7 395.18 0 377.1 0zm10.93 479.22c0 6.02-4.9 10.92-10.93 10.92H134.9c-6.03 0-10.93-4.9-10.93-10.92V32.78c0-6.02 4.9-10.92 10.93-10.92h242.2c6.03 0 10.93 4.9 10.93 10.92v446.44z"/>
  <path d="M274.42 205.2c-4.27-4.26-11.2-4.26-15.46 0l-52.5 52.5c-4.26 4.27-4.26 11.2 0 15.45 2.14 2.14 4.94 3.2 7.74 3.2s5.6-1.06 7.72-3.2l52.5-52.5c4.26-4.26 4.26-11.18 0-15.45zM305.53 235.63c-4.27-4.27-11.18-4.27-15.45 0l-20.92 20.9c-4.26 4.28-4.26 11.2 0 15.46 2.14 2.13 4.94 3.2 7.73 3.2s5.58-1.07 7.72-3.2l20.9-20.92c4.28-4.27 4.28-11.2 0-15.45z"/>
  <path d="M355.37 80.9H156.64c-5.44 0-9.84 4.4-9.84 9.83V392c0 5.43 4.4 9.84 9.84 9.84h198.73c5.43 0 9.83-4.4 9.83-9.84V90.73c0-5.43-4.4-9.84-9.83-9.84zm-9.84 301.27H166.47v-281.6h179.06v281.6z"/>
</svg>
