<svg xmlns="http://www.w3.org/2000/svg" viewBox="0 0 417.92 417.92">
  <path d="M375.57 172.6h-94.9v-7.02H375.56c3.6 0 6.5-2.9 6.5-6.5s-2.9-6.5-6.5-6.5h-28.15l14.93-46.67c2.67-8.53 3.9-17.44 3.66-26.48-1.13-44-37.88-79.6-81.93-79.42h-1.05c-17.82.08-34.25 9.45-43.94 25.05-6.44 10.37-17.55 16.56-29.73 16.56s-23.3-6.18-29.73-16.55C169.92 9.46 153.5.1 135.68 0h-1.42C90.4 0 53.83 35.55 52.68 79.42c-.23 9.04 1 17.95 3.68 26.54l14.9 46.62h-28.9c-3.6 0-6.5 2.9-6.5 6.5s2.9 6.5 6.5 6.5h94.78v7h-50.6-44.19c-3.6 0-6.5 2.92-6.5 6.5s2.9 6.5 6.5 6.5h39.5l3.5 10.98c.02 35.46 7.54 89.4 24.16 125.25l37.26 80.42c3.2 9.32 11.73 15.6 21.35 15.7h.22c6.02 0 11.67-2.33 15.95-6.56 4.32-4.3 6.7-10 6.7-16.1 0-.6-.08-1.2-.24-1.78-7.37-25.88-22.14-98.8-2.25-125.16 4.96-6.56 11.78-9.76 20.87-9.76 8.86 0 15.54 3.13 20.42 9.57 19.85 26.15 5.44 99.05-1.8 124.93-.14.57-.23 1.16-.23 1.75 0 11.77 9.33 22.1 20.8 23.04.62.05 1.26.08 1.9.08 9.62 0 18.2-6.05 21.38-15.26l37.43-80.9c16.57-35.84 24.08-89.73 24.1-125.2l3.5-10.97h38.72c3.6 0 6.5-2.92 6.5-6.5s-2.9-6.5-6.5-6.5zM84.92 152.57l-16.17-50.54c-2.24-7.18-3.27-14.67-3.07-22.28.96-36.98 31.9-66.95 68.9-66.76h1.04c13.32.06 25.64 7.13 32.95 18.9 8.83 14.22 24.07 22.7 40.78 22.7s31.95-8.48 40.77-22.7c7.32-11.77 19.64-18.84 32.95-18.9h1.36c36.9 0 67.63 29.88 68.6 66.76.2 7.6-.85 15.1-3.07 22.24l-16.2 50.58h-53.1v-47.5c0-3.6-2.9-6.5-6.5-6.5h-45.7c-3.58 0-6.5 2.9-6.5 6.5v3.5h-26.55v-3.54c-.03-3.57-2.94-6.46-6.5-6.46h-45.26c-3.6 0-6.5 2.9-6.5 6.5v47.5H84.92zm143.55 64h-33.02v-95h26.5v72.5c0 3.58 2.92 6.5 6.5 6.5s6.5-2.92 6.5-6.5V115.3l.02-.2v-3.5h32.7v115h-32.7v-3.5c0-3.6-2.9-6.5-6.5-6.5zm-78.33-105h32.3V226.6h-32.3V111.57zm-13 74.02v15.97c-19.8-4.2-34.24-8.96-40.07-11.03l-1.58-4.94h41.64zm183.52 7.97c-.2.65-.3 1.4-.3 2.08.1 34-7 86.27-22.9 120.65l-37.58 81.22c-.1.24-.2.48-.28.73-1.4 4.28-5.5 7-10 6.64-4.48-.38-8.43-4.64-8.82-9.33 3-11.03 25.98-100.2-.64-135.3-7.4-9.75-17.77-14.7-30.8-14.7-13.25 0-23.76 5.02-31.24 14.93-26.66 35.33-3.2 124.48-.15 135.54-.18 2.3-1.17 4.44-2.83 6.08-1.83 1.8-4.24 2.8-6.8 2.8h-.1c-4.08-.04-7.88-2.96-9.23-7.1l-.3-.74-37.4-80.73c-14.57-31.45-21.77-77.84-22.82-111.6 8.2 2.68 21.57 6.6 38.66 10.1v18.24c0 3.58 2.9 6.5 6.5 6.5h45.3c3.6 0 6.5-2.92 6.5-6.5v-3.5h26.53v3.5c0 3.58 2.9 6.5 6.5 6.5h45.7c3.58 0 6.5-2.92 6.5-6.5v-18.15c2.3-.47 4.58-.95 6.85-1.45 3.5-.77 5.72-4.24 4.95-7.75-.78-3.5-4.24-5.72-7.75-4.94-1.35.3-2.7.6-4.06.87V185.6h42.55l-2.54 7.97z"/>
</svg>
