<svg xmlns="http://www.w3.org/2000/svg" viewBox="0 0 512 512">
  <path d="M270.95 302.94c-10.56-14.95-27.53-24.08-45.72-24.77-.38-.04-.77-.07-1.17-.07-23.13 0-42.25-17.48-44.86-39.93 6.67-4.85 12.8-11 18.26-18.38 11-14.92 18.16-33.55 20.8-53.7.83-.9 1.5-1.92 2-3.1 4.67-11.1 7.03-22.95 7.03-35.23 0-47.22-35.7-85.64-79.6-85.64-11.34 0-22.35 2.58-32.76 7.67-3.9.33-7.7 1.03-11.37 2.1-36.68 10.6-57.42 54.94-46.22 98.87 1.13 4.42 2.56 8.76 4.27 12.9.46 1.15 1.1 2.14 1.88 3 4.22 31.04 18.9 56.85 38.98 71.45-2.58 22.47-21.7 40-44.86 40-.36 0-.7 0-1.06.04C25.18 279.26 0 305.12 0 336.76v63.14c0 5.9 4.78 10.67 10.67 10.67h188.45c5.9 0 10.66-4.78 10.66-10.67s-4.77-10.66-10.66-10.66H21.32v-52.48c0-20.58 16.76-37.33 37.34-37.33.36 0 .7-.02 1.06-.05 7.68-.24 15.04-1.8 21.85-4.43l50.5 72.88c2 2.88 5.27 4.6 8.77 4.6s6.77-1.72 8.77-4.6l50.5-72.88c6.82 2.64 14.18 4.2 21.86 4.43.35.03.7.05 1.06.05 12.1 0 23.5 5.9 30.5 15.82 2.1 2.94 5.38 4.5 8.73 4.5 2.13 0 4.27-.63 6.14-1.95 4.8-3.4 5.95-10.05 2.55-14.86zM109.5 72.38c2.8-.8 5.75-1.3 8.8-1.43 1.55-.07 3.08-.48 4.47-1.2 7.93-4.17 16.3-6.3 24.93-6.3 31.47 0 57.18 27.7 58.2 62.18-6.4-4.85-14.4-7.74-23.03-7.74H127.1c-2.78 0-5.42-.88-7.63-2.53-1.9-1.4-3.35-3.3-4.23-5.48-2-5.02-7-8.16-12.38-7.82-5.4.35-9.97 4.1-11.34 9.36-2.72 10.46-7.8 20.2-14.7 28.46-5.54-30.93 8.4-60.5 32.67-67.52zM84.47 162.7c9.3-8.53 16.85-18.88 22.12-30.3.03 0 .07.04.1.07 5.93 4.42 12.98 6.75 20.4 6.75h55.77c6.7 0 12.5 3.92 15.24 9.58-.07 22.16-6.38 42.86-17.8 58.32-10.77 14.58-24.8 22.6-39.46 22.6-13.6 0-26.8-7-37.24-19.75-10.12-12.36-16.8-29-19.12-47.26zm56.36 180.33l-40.82-58.9c10.95-9.1 18.93-21.63 22.3-35.92 5.95 1.87 12.15 2.86 18.52 2.86 6.33 0 12.53-.96 18.52-2.82 3.38 14.28 11.35 26.8 22.3 35.88l-40.82 58.9z"/>
  <path d="M455.44 337.45c-.35-.03-.7-.05-1.06-.05-23.16 0-42.3-17.53-44.87-40.02 13.08-9.5 23.85-23.78 30.95-41.12 1 3.32 3.6 6 7.03 7.07 1.04.32 2.1.48 3.16.48 3.23 0 6.36-1.47 8.42-4.1 14.88-19.12 22.6-44 21.78-70.05-.82-25.56-9.8-49.55-25.3-67.56-15.87-18.45-36.82-28.7-59-28.92-1.2-.05-4.12.05-4.6.08-11.4-5.17-23.44-7.6-35.85-7.2-25.63.83-49.2 13.6-66.38 35.97-16.7 21.74-25.35 50.1-24.4 79.85.16 5.04.56 9.68 1.2 14.1 1.74 12.68 5.23 24.83 10.38 36.1 1.64 3.58 5.13 5.97 9.06 6.2 3.93.24 7.68-1.7 9.74-5.08.86-1.4 1.96-3.15 3.18-4.86 4.75 14.44 12.02 27.42 21.25 37.67 3.94 4.38 8.2 8.18 12.67 11.42-2.6 22.47-21.72 39.98-44.87 39.98-.35 0-.7.02-1.05.05-31.38 1.1-56.56 26.97-56.56 58.6v63.15c0 5.9 4.78 10.67 10.67 10.67h260.33c5.9 0 10.67-4.78 10.67-10.67v-63.14c0-31.64-25.2-57.5-56.56-58.6zM290.1 225.63c-1.04-4.1-1.86-8.33-2.45-12.63-.54-3.7-.87-7.57-1-11.8-.8-24.84 6.3-48.34 20-66.18 13.2-17.2 31-27.02 50.12-27.63.64-.03 14.4-.8 28.43 6.27 1.56.8 3.37 1.15 5.13 1.1l5.84-.26c16.02.12 31.36 7.75 43.2 21.5 12.33 14.33 19.5 33.63 20.15 54.34.36 11.24-1.22 22.18-4.57 32.23-1-2.68-2.13-5.33-3.36-7.93-10.3-21.9-27.65-38.88-48.83-47.78-2.68-1.13-5.7-1.12-8.37.04-2.67 1.16-4.75 3.36-5.76 6.1-1.42 3.82-3.14 7.56-5.12 11.1-5.58 9.98-16.84 15.92-29.36 15.48-1.88-.06-3.8-.06-5.67 0-9.23.3-18.22 2.05-26.8 5.24-8.44 3.2-22.66 11.2-31.6 20.8zm26.25 5.8c4.04-2.7 8.35-4.94 12.85-6.64 6.35-2.38 13.07-3.7 19.97-3.9 1.4-.05 2.84-.05 4.25 0 20.6.7 39.22-9.4 48.72-26.4.58-1.04 1.15-2.1 1.7-3.17 9.73 6 18.04 14.44 24.3 24.7-.06.3-.1.62-.13.95-1.63 20.23-8.6 38.8-19.65 52.3-10.43 12.73-23.65 19.75-37.24 19.75-25.1 0-47.43-23.87-54.75-57.6zm36.3 76.06c6 1.87 12.2 2.86 18.46 2.86 6.4 0 12.6-1 18.57-2.87 4.28 18.16 16.03 33.46 31.82 42.5-6.17 22.24-26.64 38.25-50.34 38.25-23.7 0-44.16-16-50.32-38.26 15.8-9.04 27.53-24.34 31.8-42.5zm138.02 141.04H251.65v-52.48c0-20.58 16.75-37.33 37.33-37.33.36 0 .7-.02 1.06-.05 3.67-.12 7.27-.52 10.77-1.2 9.28 30.4 37.63 52.1 70.36 52.1 32.74 0 61.08-21.7 70.35-52.1 3.5.68 7.1 1.08 10.78 1.2.35.03.7.05 1.06.05 20.58 0 37.33 16.75 37.33 37.33v52.48z"/>
</svg>
