<svg xmlns="http://www.w3.org/2000/svg" viewBox="0 0 112.2 112.2"><circle cx="56.1" cy="56.1" r="56.1" fill="#4D76A1"/><path fill="#FFF" fill-rule="evenodd" d="M54 80.7h4.4s1.3 0 2-1c.6-.5.6-1.8.6-1.8s0-6 2.7-7c2.7-.7 6 5.8 9.8 8.3 2.8 2 5 1.5 5 1.5H88s5.2-.4 2.7-4.5c-.3-.3-1.5-3-7.4-8.4-6-5.8-5.3-5 2-14.8 4.6-6 6.5-9.7 6-11.3-.7-1.6-4-1.2-4-1.2h-11s-1 0-1.5.3l-1 1.3S72.5 47 70 51c-5 8.3-7 8.7-7.7 8.2-1.8-1.2-1.4-4.8-1.4-7.4 0-8.2 1.2-11.5-2.5-12.4-1.2-.3-2-.5-5-.5-4-.2-7.4 0-9.3.8-1.3.6-2.3 2-1.7 2 .8.2 2.4.5 3.3 1.7 1 1.6 1 5 1 5s.7 9.6-1.4 10.8c-1.5.8-3.6-1-8-8.5-2.2-4-4-8.2-4-8.2s-.2-.8-.8-1.2c-.7-.5-1.7-.7-1.7-.7H20.2s-1.5 0-2 .8c-.6.6-.2 2-.2 2s8.4 19.2 17.7 29c8.6 8.8 18.3 8.2 18.3 8.2z" clip-rule="evenodd"/></svg>
