<svg xmlns="http://www.w3.org/2000/svg" width="123.71" height="43.29" viewBox="0 0 123.71 43.29"><title>logo-export</title><rect x="75.44" y="39.29" width="47.73" height="0.2" fill="#1d1d1d"/><rect x="84.67" y="8.34" width="38.49" height="0.2" fill="#1d1d1d"/><path d="M241.83,422.34l-.16.4a4.46,4.46,0,0,1-2.05.49,3.63,3.63,0,0,1-2.54-.89,3,3,0,0,1-1-2.32,3.05,3.05,0,0,1,.49-1.72,3,3,0,0,1,1.29-1.1,4.26,4.26,0,0,1,1.79-.37,5.48,5.48,0,0,1,1.14.12,4.77,4.77,0,0,1,.94.29l0,0a5.49,5.49,0,0,0-.19,1.2l0,0h-.2l0,0,0-.74a2.37,2.37,0,0,0-.76-.39,3.12,3.12,0,0,0-.93-.14,2.7,2.7,0,0,0-1.31.31,2.18,2.18,0,0,0-.9.91,3,3,0,0,0-.32,1.46,3,3,0,0,0,.38,1.52,2.57,2.57,0,0,0,1,1,3.17,3.17,0,0,0,1.52.35,3.66,3.66,0,0,0,.74-.07,2.76,2.76,0,0,0,.59-.18,2.69,2.69,0,0,0,.45-.26l.07.09Zm5.8-2.25a3.83,3.83,0,0,1,.19-1.21,2.8,2.8,0,0,1,.63-1,3.06,3.06,0,0,1,1.08-.74,3.68,3.68,0,0,1,1.43-.26,3.33,3.33,0,0,1,2.35.8,2.83,2.83,0,0,1,.87,2.19,3.57,3.57,0,0,1-.43,1.76,3,3,0,0,1-1.23,1.21,3.7,3.7,0,0,1-1.79.43,3.49,3.49,0,0,1-1.3-.23,2.66,2.66,0,0,1-1-.7,2.86,2.86,0,0,1-.61-1.08,3.85,3.85,0,0,1-.19-1.12Zm.9-.29a4.22,4.22,0,0,0,.17,1.14,3,3,0,0,0,.51,1,2.22,2.22,0,0,0,.78.65,2.49,2.49,0,0,0,2.2-.09,1.93,1.93,0,0,0,.8-1,3.68,3.68,0,0,0,.27-1.45,3.86,3.86,0,0,0-.31-1.58,2.09,2.09,0,0,0-.89-1,2.58,2.58,0,0,0-1.28-.32,2.14,2.14,0,0,0-1.66.66,2.78,2.78,0,0,0-.61,1.94Zm11.36-2.57,0,0V417l0,0,1.14,0,1.2,0h.49a2.93,2.93,0,0,1,.92.12,1.08,1.08,0,0,1,.55.41,1.15,1.15,0,0,1,.21.67,1.36,1.36,0,0,1-.35.89,2,2,0,0,1-1.13.59,4.61,4.61,0,0,1,.77.13,1.48,1.48,0,0,1,.52.25,1.18,1.18,0,0,1,.35.44,1.48,1.48,0,0,1,.13.63,2,2,0,0,1-.09.57,1.68,1.68,0,0,1-.32.58,2.22,2.22,0,0,1-.56.49,2.5,2.5,0,0,1-.67.29,3.4,3.4,0,0,1-.85.09l-.62,0H261l-.72,0,0,0v-.14l0,0a1.25,1.25,0,0,0,.29-.16,3.36,3.36,0,0,0,.06-.77c0-.48,0-.85,0-1.1v-2.57c0-.21,0-.39,0-.52a2.45,2.45,0,0,0,0-.29.22.22,0,0,0-.05-.12l-.1-.06-.21,0-.33,0Zm1.55,2.27.49,0a1.86,1.86,0,0,0,1.25-.32,1.13,1.13,0,0,0,.35-.88,1.07,1.07,0,0,0-.13-.55.85.85,0,0,0-.42-.35,2.05,2.05,0,0,0-.78-.12,3.38,3.38,0,0,0-.71.06q0,.39,0,1.36v.78Zm0,3.16a3,3,0,0,0,.68.08,2,2,0,0,0,1-.2,1.23,1.23,0,0,0,.52-.55,1.76,1.76,0,0,0,.17-.77,1.39,1.39,0,0,0-.35-1,2.17,2.17,0,0,0-1.52-.37l-.47,0v2.8Zm9.3-5.71,1.39,0,.91,0,.66,0a3.41,3.41,0,0,1,1,.13,1.32,1.32,0,0,1,.66.46,1.27,1.27,0,0,1,.26.81,1.67,1.67,0,0,1-.18.75,1.85,1.85,0,0,1-.51.62,2.11,2.11,0,0,1-1.35.48,3.39,3.39,0,0,1-.6-.06l-.07-.26,0,0a2.52,2.52,0,0,0,.53.07,1.18,1.18,0,0,0,.91-.38,1.36,1.36,0,0,0,.34-1,1.26,1.26,0,0,0-.36-.94,1.49,1.49,0,0,0-1.08-.35,2.9,2.9,0,0,0-.87.15q0,.33,0,1.61v2.85a5.81,5.81,0,0,0,0,.63.38.38,0,0,0,.06.19.31.31,0,0,0,.16.08,3.39,3.39,0,0,0,.58.05l0,0v.22l0,0-1.24,0-1.24,0,0,0v-.22l0,0,.54,0a.39.39,0,0,0,.18-.07.34.34,0,0,0,.07-.17,4,4,0,0,0,0-.6v-3.76a6.32,6.32,0,0,0,0-.64.37.37,0,0,0-.06-.19.31.31,0,0,0-.16-.08,3.72,3.72,0,0,0-.58,0l0,0V417l0,0Zm10.76,0,0,0,1.9,0q1.42,0,2.53,0l0,0a7.3,7.3,0,0,0-.16,1.3l0,0h-.21l0,0a.69.69,0,0,0,0-.07,4.29,4.29,0,0,0-.06-.7,2.35,2.35,0,0,0-.75-.16l-.73,0c-.23,0-.52,0-.87,0l0,.69v1.67l.86,0q.4,0,.67,0a1.16,1.16,0,0,0,.31-.05.18.18,0,0,0,.07-.11,1.6,1.6,0,0,0,0-.28l0-.27,0,0h.2l0,0c0,.31,0,.63,0,.95l0,1,0,0h-.2l0,0,0-.26a3.28,3.28,0,0,0-.06-.36.19.19,0,0,0-.08-.1.89.89,0,0,0-.32-.07c-.17,0-.41,0-.71,0l-.77,0q0,.36,0,1.21t0,1.34h.8c.7,0,1.14,0,1.32,0a1.79,1.79,0,0,0,.5-.13c0-.07.07-.22.13-.46s.09-.39.1-.45l0,0h.21l0,0a6,6,0,0,0-.08.65c0,.31,0,.57,0,.79l0,0q-.83,0-2.16,0h-1.18c-.27,0-.56,0-.86,0l0,0v-.14l0,0,.29-.16a3.24,3.24,0,0,0,.06-.76q0-.72,0-1.1v-2.57c0-.21,0-.39,0-.52a1.59,1.59,0,0,0,0-.29.34.34,0,0,0,0-.12.22.22,0,0,0-.09-.06l-.21,0-.33,0,0,0V417Zm18.58,0,0,0v.21l0,0a3,3,0,0,0-.59,0,.26.26,0,0,0-.16.11.72.72,0,0,0-.05.31q0,.23,0,1.32v2q0,.43,0,1a2.6,2.6,0,0,0,.05.63.25.25,0,0,0,.15.13,2.67,2.67,0,0,0,.61.05l0,0v.21l0,0q-.71,0-1.23,0l-1.21,0,0,0v-.21l0,0a3.27,3.27,0,0,0,.59,0,.27.27,0,0,0,.16-.12.75.75,0,0,0,.06-.32q0-.24,0-1.32v-3.18L297,421q-.56,1.17-1,2.21h-.17q-.24-.56-.4-.89l-2.07-4.3v3c0,.28,0,.61,0,1a2.47,2.47,0,0,0,.05.64.28.28,0,0,0,.15.13,2.59,2.59,0,0,0,.61.05l0,0v.21l0,0h-.28l-.74,0-1,0,0,0v-.21l0,0a3.09,3.09,0,0,0,.59,0,.27.27,0,0,0,.16-.12.68.68,0,0,0,.06-.31c0-.15,0-.59,0-1.33v-2c0-.26,0-.58,0-1a2.83,2.83,0,0,0-.05-.65.26.26,0,0,0-.15-.13,2.43,2.43,0,0,0-.61-.05l0,0V417l0,0,.81,0,.83,0q.36.84.7,1.52l1.64,3.37,1.48-3.09q.6-1.25.81-1.8l.82,0,.86,0Zm5.9,0,0,0,1.9,0q1.42,0,2.53,0l0,0a7.3,7.3,0,0,0-.16,1.3l0,0h-.21l0,0a.68.68,0,0,0,0-.07,4.3,4.3,0,0,0-.06-.7,2.35,2.35,0,0,0-.75-.16l-.73,0c-.23,0-.52,0-.87,0l0,.69v1.67l.86,0q.4,0,.67,0a1.16,1.16,0,0,0,.31-.05.18.18,0,0,0,.07-.11,1.59,1.59,0,0,0,0-.28l0-.27,0,0h.2l0,0c0,.31,0,.63,0,.95l0,1,0,0h-.2l0,0,0-.26a3.31,3.31,0,0,0-.06-.36.19.19,0,0,0-.08-.1.89.89,0,0,0-.32-.07c-.17,0-.41,0-.71,0l-.77,0q0,.36,0,1.21t0,1.34h.8c.7,0,1.14,0,1.32,0a1.79,1.79,0,0,0,.5-.13c0-.07.07-.22.13-.46s.09-.39.1-.45l0,0h.21l0,0a6,6,0,0,0-.08.65c0,.31,0,.57,0,.79l0,0q-.83,0-2.16,0h-1.18c-.27,0-.56,0-.86,0l0,0v-.14l0,0,.29-.16a3.22,3.22,0,0,0,.06-.76q0-.72,0-1.1v-2.57c0-.21,0-.39,0-.52a1.57,1.57,0,0,0,0-.29.34.34,0,0,0,0-.12.22.22,0,0,0-.09-.06l-.21,0-.33,0,0,0V417Zm10.7,0,1.24,0,1.24,0,0,0v.22l0,0-.46,0a.57.57,0,0,0-.24.07.31.31,0,0,0-.1.22,3.8,3.8,0,0,0,0,.49v1.6l1.8,0c.77,0,1.36,0,1.77,0v-1.45c0-.33,0-.54,0-.64a.44.44,0,0,0-.06-.19.3.3,0,0,0-.16-.08,3.73,3.73,0,0,0-.58,0l0,0V417l0,0,1.24,0,1.24,0,0,0v.22l0,0-.47,0a.57.57,0,0,0-.24.07.3.3,0,0,0-.1.22,4.7,4.7,0,0,0,0,.49v3.84a5.87,5.87,0,0,0,0,.63.39.39,0,0,0,.06.19.3.3,0,0,0,.16.08,3.36,3.36,0,0,0,.58.05l0,0v.22l0,0-1.24,0-1.24,0,0,0v-.22l0,0,.54,0a.38.38,0,0,0,.18-.07.37.37,0,0,0,.07-.17,3.69,3.69,0,0,0,0-.6V420l-1.8,0-1.77,0v1.83a5.79,5.79,0,0,0,0,.63.38.38,0,0,0,.06.19.31.31,0,0,0,.16.08,3.39,3.39,0,0,0,.58.05l0,0v.22l0,0-1.24,0-1.24,0,0,0v-.22l0,0,.54,0a.39.39,0,0,0,.18-.07.34.34,0,0,0,.07-.17,4,4,0,0,0,0-.6v-3.76a6.32,6.32,0,0,0,0-.64.37.37,0,0,0-.06-.19.31.31,0,0,0-.16-.08,3.73,3.73,0,0,0-.58,0l0,0V417l0,0Zm12.72,0,1.24,0,1.24,0,0,0v.22l0,0-.46,0a.57.57,0,0,0-.24.07.31.31,0,0,0-.1.22,3.8,3.8,0,0,0,0,.49v1.6l1.8,0c.77,0,1.36,0,1.77,0v-1.45c0-.33,0-.54,0-.64a.44.44,0,0,0-.06-.19.3.3,0,0,0-.16-.08,3.73,3.73,0,0,0-.58,0l0,0V417l0,0,1.24,0,1.24,0,0,0v.22l0,0-.47,0a.57.57,0,0,0-.24.07.3.3,0,0,0-.1.22,4.7,4.7,0,0,0,0,.49v3.84a5.88,5.88,0,0,0,0,.63.4.4,0,0,0,.06.19.3.3,0,0,0,.16.08,3.36,3.36,0,0,0,.58.05l0,0v.22l0,0-1.24,0-1.24,0,0,0v-.22l0,0,.54,0a.38.38,0,0,0,.18-.07.37.37,0,0,0,.07-.17,3.71,3.71,0,0,0,0-.6V420l-1.8,0-1.77,0v1.83a5.79,5.79,0,0,0,0,.63.38.38,0,0,0,.06.19.31.31,0,0,0,.16.08,3.39,3.39,0,0,0,.58.05l0,0v.22l0,0-1.24,0-1.24,0,0,0v-.22l0,0,.54,0a.39.39,0,0,0,.18-.07.34.34,0,0,0,.07-.17,4,4,0,0,0,0-.6v-3.76a6.32,6.32,0,0,0,0-.64.37.37,0,0,0-.06-.19.31.31,0,0,0-.16-.08,3.72,3.72,0,0,0-.58,0l0,0V417l0,0Zm12.65,6.15,0,0v-.22l0,0a1.84,1.84,0,0,0,.41,0,.34.34,0,0,0,.16-.11,3.68,3.68,0,0,0,.29-.55l.45-1,1.18-2.67.66-1.57h.28l1.85,4.35.25.58q.11.25.25.54a1.67,1.67,0,0,0,.19.34.37.37,0,0,0,.13.08,1.42,1.42,0,0,0,.36,0l0,0v.22l0,0c-.31,0-.58,0-.83,0l-1.44,0,0,0v-.22l0,0a3.44,3.44,0,0,0,.61,0,.14.14,0,0,0,.12-.15.75.75,0,0,0-.06-.25l-.53-1.32h-2.51l-.47,1.11a1.29,1.29,0,0,0-.13.44.17.17,0,0,0,.12.16,2,2,0,0,0,.59.06l0,0v.22l0,0-1,0c-.32,0-.64,0-1,0Zm2-2.43h2.19l-1.09-2.61-1.1,2.61Zm12.79-.69a2.44,2.44,0,0,1-1.36-.59,1.4,1.4,0,0,1-.41-1,1.35,1.35,0,0,1,.15-.65,1.28,1.28,0,0,1,.44-.47,1.8,1.8,0,0,1,.65-.25,5,5,0,0,1,.86-.07l.75,0,.66,0,1.2,0,0,0v.22l0,0a4.52,4.52,0,0,0-.54,0,.33.33,0,0,0-.19.08.35.35,0,0,0-.06.18c0,.08,0,.3,0,.66s0,.63,0,.84v2c0,.22,0,.51,0,.85s0,.56,0,.64a.32.32,0,0,0,.07.19.38.38,0,0,0,.21.08l.52,0,0,0v.22l0,0-.57,0-.69,0-1.23,0,0,0v-.22l0,0a4,4,0,0,0,.56,0,.36.36,0,0,0,.17-.07.28.28,0,0,0,.07-.15,5.62,5.62,0,0,0,0-.66c0-.37,0-.66,0-.87v-3.62l0,0-.64,0q-1.52,0-1.52,1.11a1.24,1.24,0,0,0,.47,1,2.45,2.45,0,0,0,1.54.4V420q-.65.7-2.54,3.11l-.65,0-.68,0,0,0v-.2l0,0a1.26,1.26,0,0,0,.41-.05,1.34,1.34,0,0,0,.34-.3q.23-.25,1-1.17t1-1.31Zm-115,11.92-.16.4a4.46,4.46,0,0,1-2.05.49,3.63,3.63,0,0,1-2.54-.89,3,3,0,0,1-1-2.32,3.05,3.05,0,0,1,.49-1.72,3,3,0,0,1,1.29-1.1,4.26,4.26,0,0,1,1.79-.37,5.47,5.47,0,0,1,1.14.12,4.76,4.76,0,0,1,.94.29l0,0a5.49,5.49,0,0,0-.19,1.2l0,0h-.2l0,0,0-.74a2.37,2.37,0,0,0-.76-.39,3.12,3.12,0,0,0-.93-.14,2.7,2.7,0,0,0-1.31.31,2.18,2.18,0,0,0-.9.91,3,3,0,0,0-.32,1.46,3,3,0,0,0,.38,1.52,2.57,2.57,0,0,0,1,1,3.17,3.17,0,0,0,1.52.35,3.65,3.65,0,0,0,.74-.07,2.76,2.76,0,0,0,.59-.18,2.69,2.69,0,0,0,.45-.26l.07.09Zm5.47-5.38,0,0q0,.39,0,1.36l0,0h-.2l0,0,0-.4a3.82,3.82,0,0,0-.05-.39.18.18,0,0,0-.06-.1.76.76,0,0,0-.28-.05l-.53,0h-.82q0,1,0,1.13v3.37c0,.33,0,.54,0,.64a.39.39,0,0,0,.06.19.33.33,0,0,0,.16.08,3.43,3.43,0,0,0,.58.05l0,0v.22l0,0-1.24,0-1.23,0,0,0v-.22l0,0,.54,0a.39.39,0,0,0,.18-.07.36.36,0,0,0,.08-.17,3.47,3.47,0,0,0,0-.6v-3.44s0-.42,0-1.13h-.65l-.69,0c-.19,0-.31,0-.34.09a1.54,1.54,0,0,0-.09.47l0,.4,0,0h-.2l0,0q0-1,0-1.36l0,0q.75,0,2.51,0t2.51,0Zm.42,3.13a3.83,3.83,0,0,1,.19-1.21,2.8,2.8,0,0,1,.63-1,3.06,3.06,0,0,1,1.08-.74,3.68,3.68,0,0,1,1.43-.26,3.33,3.33,0,0,1,2.35.8,2.83,2.83,0,0,1,.87,2.19,3.57,3.57,0,0,1-.43,1.76,3,3,0,0,1-1.23,1.21,3.7,3.7,0,0,1-1.79.43,3.49,3.49,0,0,1-1.3-.24,2.66,2.66,0,0,1-1-.7,2.86,2.86,0,0,1-.61-1.08,3.85,3.85,0,0,1-.19-1.12Zm.9-.29a4.23,4.23,0,0,0,.17,1.14,3,3,0,0,0,.51,1,2.22,2.22,0,0,0,.78.65,2.49,2.49,0,0,0,2.2-.09,1.93,1.93,0,0,0,.8-1,3.68,3.68,0,0,0,.27-1.45,3.87,3.87,0,0,0-.31-1.58,2.1,2.1,0,0,0-.89-1,2.58,2.58,0,0,0-1.28-.32,2.14,2.14,0,0,0-1.66.66,2.78,2.78,0,0,0-.61,1.94Zm14-2.83,0,0v.21l0,0a3,3,0,0,0-.59,0,.26.26,0,0,0-.16.11.73.73,0,0,0-.05.31q0,.23,0,1.32v2q0,.43,0,1a2.61,2.61,0,0,0,.05.63.25.25,0,0,0,.15.13,2.66,2.66,0,0,0,.61.05l0,0v.21l0,0q-.71,0-1.23,0l-1.21,0,0,0v-.21l0,0a3.27,3.27,0,0,0,.59,0,.27.27,0,0,0,.16-.12.75.75,0,0,0,.06-.32q0-.24,0-1.32v-3.18l-1.49,3.12q-.56,1.17-1,2.21h-.17q-.24-.56-.4-.89l-2.07-4.3v3c0,.28,0,.61,0,1a2.46,2.46,0,0,0,.05.64.28.28,0,0,0,.15.13,2.58,2.58,0,0,0,.61.05l0,0v.21l0,0h-.28l-.74,0-1,0,0,0v-.21l0,0a3.08,3.08,0,0,0,.59,0,.27.27,0,0,0,.16-.12.68.68,0,0,0,.06-.31c0-.15,0-.59,0-1.33v-2c0-.26,0-.58,0-1a2.84,2.84,0,0,0-.05-.65.26.26,0,0,0-.15-.13,2.43,2.43,0,0,0-.61-.05l0,0v-.21l0,0,.81,0,.83,0q.36.84.7,1.52l1.64,3.37,1.48-3.09q.6-1.25.81-1.8l.82,0Z" transform="translate(-236.1 -399.81)" fill="#1d1d1d" fill-rule="evenodd"/><path d="M263.05,432.67l0,0v-.22l0,0a1.84,1.84,0,0,0,.41,0,.34.34,0,0,0,.16-.11,3.68,3.68,0,0,0,.29-.55l.45-1,1.18-2.67.66-1.57h.28l1.85,4.35.25.58c.07.17.16.34.25.54a1.67,1.67,0,0,0,.19.34.37.37,0,0,0,.13.08,1.42,1.42,0,0,0,.36,0l0,0v.22l0,0c-.31,0-.58,0-.83,0l-1.44,0,0,0v-.22l0,0a3.44,3.44,0,0,0,.61,0,.14.14,0,0,0,.12-.15.75.75,0,0,0-.06-.25l-.53-1.32h-2.51l-.47,1.11a1.29,1.29,0,0,0-.13.44.17.17,0,0,0,.12.16,2,2,0,0,0,.59.06l0,0v.22l0,0-1,0c-.32,0-.64,0-1,0Zm2-2.43h2.19l-1.09-2.61-1.1,2.61Zm10-3.72,0,0q0,.39,0,1.36l0,0h-.2l0,0,0-.4a3.82,3.82,0,0,0-.05-.39.18.18,0,0,0-.06-.1.76.76,0,0,0-.28-.05l-.53,0h-.82q0,1,0,1.13v3.37c0,.33,0,.54,0,.64a.39.39,0,0,0,.06.19.33.33,0,0,0,.16.08,3.43,3.43,0,0,0,.58.05l0,0v.22l0,0-1.24,0-1.23,0,0,0v-.22l0,0,.54,0a.39.39,0,0,0,.18-.07.36.36,0,0,0,.08-.17,3.48,3.48,0,0,0,0-.6v-3.44s0-.42,0-1.13h-.65l-.69,0c-.19,0-.31,0-.34.09a1.54,1.54,0,0,0-.09.47l0,.4,0,0H270l0,0q0-1,0-1.36l0,0q.75,0,2.51,0t2.51,0Zm.42,3.13a3.83,3.83,0,0,1,.19-1.21,2.8,2.8,0,0,1,.63-1,3.07,3.07,0,0,1,1.08-.74,3.68,3.68,0,0,1,1.43-.26,3.33,3.33,0,0,1,2.35.8,2.83,2.83,0,0,1,.87,2.19,3.57,3.57,0,0,1-.43,1.76,3,3,0,0,1-1.23,1.21,3.7,3.7,0,0,1-1.79.43,3.49,3.49,0,0,1-1.3-.24,2.66,2.66,0,0,1-1-.7,2.87,2.87,0,0,1-.61-1.08,3.85,3.85,0,0,1-.19-1.12Zm.9-.29a4.22,4.22,0,0,0,.17,1.14,3,3,0,0,0,.51,1,2.22,2.22,0,0,0,.78.65,2.49,2.49,0,0,0,2.2-.09,1.93,1.93,0,0,0,.8-1,3.68,3.68,0,0,0,.27-1.45,3.87,3.87,0,0,0-.31-1.58,2.09,2.09,0,0,0-.89-1,2.58,2.58,0,0,0-1.28-.32,2.14,2.14,0,0,0-1.66.66,2.78,2.78,0,0,0-.61,1.94Zm5.74,3.27v-.22l0,0a1.22,1.22,0,0,0,.48-.08,1.49,1.49,0,0,0,.36-.39l1.44-2.08,1.17-1.67c.36-.51.56-.81.62-.9a.33.33,0,0,0,.06-.17c0-.09-.06-.16-.17-.2a4.72,4.72,0,0,0-1-.1l0,0v-.22l0,0,.5,0,.76,0,.74,0,.49,0,0,0c0,.12,0,.28,0,.47v3.58c0,.24,0,.52,0,.86s0,.55,0,.63a.33.33,0,0,0,.07.19.38.38,0,0,0,.21.08l.52,0,0,0v.22l0,0-.57,0-.68,0-1.23,0,0,0v-.22l0,0,.53,0a.34.34,0,0,0,.2-.09.38.38,0,0,0,.06-.19c0-.09,0-.31,0-.65s0-.62,0-.82v-3.52h-.12l-1.54,2.39-1.19,1.85q-.45.71-.48.78a.36.36,0,0,0,0,.11c0,.11.09.17.26.17l.32,0,0,0v.22l0,0c-.29,0-.58,0-.85,0s-.67,0-1,0l0,0Zm6.79-3a3.83,3.83,0,0,1,.19-1.21,2.8,2.8,0,0,1,.63-1,3.07,3.07,0,0,1,1.08-.74,3.68,3.68,0,0,1,1.43-.26,3.33,3.33,0,0,1,2.35.8,2.83,2.83,0,0,1,.87,2.19,3.57,3.57,0,0,1-.43,1.76,3,3,0,0,1-1.23,1.21,3.7,3.7,0,0,1-1.79.43,3.49,3.49,0,0,1-1.3-.24,2.66,2.66,0,0,1-1-.7,2.86,2.86,0,0,1-.61-1.08,3.85,3.85,0,0,1-.19-1.12Zm.9-.29a4.22,4.22,0,0,0,.17,1.14,3,3,0,0,0,.51,1,2.22,2.22,0,0,0,.78.65,2.49,2.49,0,0,0,2.2-.09,1.93,1.93,0,0,0,.8-1,3.68,3.68,0,0,0,.27-1.45,3.86,3.86,0,0,0-.31-1.58,2.09,2.09,0,0,0-.89-1,2.58,2.58,0,0,0-1.28-.32,2.14,2.14,0,0,0-1.66.66,2.78,2.78,0,0,0-.61,1.94Zm7.73-2.47v3.7c0,.22,0,.51,0,.85s0,.56,0,.65a.33.33,0,0,0,.07.18.36.36,0,0,0,.2.08l.52,0,0,0v.22l0,0q-.69,0-1.25,0t-1.23,0l0,0v-.22l0,0,.53,0a.35.35,0,0,0,.2-.08.37.37,0,0,0,.06-.18c0-.08,0-.3,0-.64s0-.63,0-.85v-2q0-.44,0-.95a4.27,4.27,0,0,0,0-.6.26.26,0,0,0-.07-.14.37.37,0,0,0-.18-.06l-.53,0,0,0v-.22l0,0q.61,0,3.28,0l1.15,0,.07.09q-.07.41-.12,1.17l0,0H300l0,0-.06-.33a1,1,0,0,0-.08-.3.38.38,0,0,0-.17-.17.91.91,0,0,0-.27-.07l-.43,0Zm3.07,5.74v-.22l0,0,.53,0a.34.34,0,0,0,.2-.08.36.36,0,0,0,.06-.18c0-.08,0-.3,0-.64s0-.63,0-.85v-2c0-.3,0-.62,0-1a4.62,4.62,0,0,0,0-.6.27.27,0,0,0-.07-.13.4.4,0,0,0-.18-.07,4.21,4.21,0,0,0-.53,0l0,0v-.22l0,0,.57,0,.68,0,1.23,0,0,0v.22l0,0a4.5,4.5,0,0,0-.53,0,.36.36,0,0,0-.2.08.35.35,0,0,0-.06.18c0,.08,0,.3,0,.66s0,.64,0,.84v3.32l.06,0q.91-1.32,2.07-3.13t1.42-2.29q.45,0,.85,0t.84,0l0,0v.22l0,0a3.79,3.79,0,0,0-.55,0,.35.35,0,0,0-.17.07.29.29,0,0,0-.06.15,5.46,5.46,0,0,0,0,.65c0,.37,0,.66,0,.88v2q0,.35,0,.86t0,.63a.32.32,0,0,0,.07.18.38.38,0,0,0,.21.08,4.41,4.41,0,0,0,.52,0l0,0v.22l0,0-.57,0-.68,0-1.23,0,0,0v-.22l0,0a3.71,3.71,0,0,0,.53,0,.37.37,0,0,0,.2-.08.32.32,0,0,0,.06-.18c0-.08,0-.3,0-.66s0-.63,0-.84v-3.23l-.09,0q-.38.55-1.75,2.64l-1.74,2.69c-.25,0-.53,0-.85,0l-.81,0,0,0Zm9.89-3.09a2.44,2.44,0,0,1-1.36-.59,1.4,1.4,0,0,1-.41-1,1.35,1.35,0,0,1,.16-.65,1.28,1.28,0,0,1,.44-.47,1.8,1.8,0,0,1,.65-.25,5,5,0,0,1,.86-.07l.75,0,.66,0,1.2,0,0,0v.22l0,0a4.5,4.5,0,0,0-.54,0,.33.33,0,0,0-.19.08.35.35,0,0,0-.06.18q0,.13,0,.66c0,.35,0,.63,0,.84v2c0,.22,0,.51,0,.85s0,.56,0,.64a.32.32,0,0,0,.07.19.38.38,0,0,0,.21.08l.52,0,0,0v.22l0,0-.57,0-.69,0-1.23,0,0,0v-.22l0,0a4,4,0,0,0,.56,0,.36.36,0,0,0,.17-.07.28.28,0,0,0,.07-.15,5.67,5.67,0,0,0,0-.66c0-.37,0-.66,0-.87V427l0,0-.64,0q-1.52,0-1.52,1.11a1.24,1.24,0,0,0,.47,1,2.45,2.45,0,0,0,1.54.4v.12q-.65.7-2.54,3.11l-.65,0-.68,0,0,0v-.2l0,0a1.26,1.26,0,0,0,.41-.05,1.34,1.34,0,0,0,.34-.3q.23-.25,1-1.17t1-1.31Zm12.16,2.73q-.16.67-.42,2.1l0,0h-.27l0,0,0-.87a1.28,1.28,0,0,0-.14-.72.36.36,0,0,0-.18-.1,5.77,5.77,0,0,0-.75,0h-3.22c-.35,0-.55.12-.6.34s0,.58-.06,1.39l0,0h-.27l0,0-.16-.85c0-.18-.07-.36-.11-.56l-.15-.7,0-.13.53,0h.19c.12-.17.26-.38.41-.61l2.72-4.26a.54.54,0,0,0,.08-.15q0-.12-1.16-.25l0,0v-.3l0,0c.27,0,.78,0,1.51,0s1.24,0,1.43,0l.06,0q0,1.51,0,1.91v1.86c0,.55,0,1.16,0,1.85H322a5.25,5.25,0,0,0,.58,0l0,.13Zm-2-1.69v-1.31l0-2.12h-.1l-.46.74-2.46,4.3h3c0-.53,0-1.06,0-1.61Zm9.26,2,0,0-1.35,0c-.62,0-1.06,0-1.32,0l0,0v-.29l0,0,.51,0a.19.19,0,0,0,.15-.16,9.83,9.83,0,0,0,.06-1.34v-3.19l-2.71,5.12-.83,0-1.12,0,0,0v-.29l0,0,.51,0a.19.19,0,0,0,.15-.16,9.6,9.6,0,0,0,.06-1.34v-2.29a9.58,9.58,0,0,0-.06-1.34.19.19,0,0,0-.15-.16l-.51,0,0,0v-.29l0,0,1.34,0,1.33,0,0,0v.29l0,0-.51,0a.19.19,0,0,0-.15.16,9.8,9.8,0,0,0-.06,1.34v3.26l2.71-5.18.77,0,1.18,0,0,0v.29l0,0-.51,0a.19.19,0,0,0-.15.16,9.81,9.81,0,0,0-.06,1.34v2.29a9.83,9.83,0,0,0,.06,1.34.19.19,0,0,0,.15.16l.51,0,0,0v.3Zm6.94,0,0,.05-.75,0h-.71a.38.38,0,0,1-.24-.08,5,5,0,0,1-.62-.61l-2-2.26v1a9.85,9.85,0,0,0,.06,1.34.19.19,0,0,0,.15.16l.51,0,0,0v.29l0,0q-.43,0-1.33,0t-1.33,0l0,0v-.29l0,0,.51,0a.19.19,0,0,0,.15-.16,9.59,9.59,0,0,0,.06-1.34v-2.29a9.57,9.57,0,0,0-.06-1.34.19.19,0,0,0-.15-.16l-.51,0,0,0v-.29l0,0q.41,0,1.33,0t1.33,0l0,0v.29l0,0-.51,0a.19.19,0,0,0-.15.16,9.83,9.83,0,0,0-.06,1.34v1.07l.93-.95.53-.56q.43-.47.57-.66a.93.93,0,0,0,.23-.43.08.08,0,0,0,0-.07l0,0v-.25l.05,0,.89,0,.85,0,0,0v.29l0,0a2,2,0,0,0-.69.12,3,3,0,0,0-.57.42q-.43.37-1.12,1l-.68.66,2.48,2.57a1.88,1.88,0,0,0,1,.61l0,0v.27Zm8.67,0,0,0c-.29,0-.73,0-1.33,0s-1.06,0-1.33,0l0,0v-.29l0,0,.51,0a.18.18,0,0,0,.15-.16,9.48,9.48,0,0,0,.06-1.34v-2.93l-1,2-.56,1.21-.79,1.73h-.29q-.23-.54-.61-1.35l-.61-1.29-1.13-2.36v3a9.85,9.85,0,0,0,.06,1.34.19.19,0,0,0,.15.16l.51,0,0,0v.29l0,0-.93,0-1,0,0,0v-.29l0,0,.51,0a.19.19,0,0,0,.15-.16,9.56,9.56,0,0,0,.06-1.34v-2.29a9.54,9.54,0,0,0-.06-1.34.19.19,0,0,0-.15-.16l-.51,0,0,0v-.29l0,0q.45,0,1.14,0,.53,0,.92,0l.41.93.28.6,1.38,2.88.66-1.34,1-2.21c.12-.26.24-.55.36-.85l.66,0q.85,0,1.3,0l0,0v.3l0,0-.51,0a.19.19,0,0,0-.15.16,9.8,9.8,0,0,0-.06,1.34v2.29a9.82,9.82,0,0,0,.06,1.34.19.19,0,0,0,.15.16l.51,0,0,0v.29Zm7,0,0,0-1.16,0-1.48,0,0,0v-.27l0,0,.38,0c.16,0,.24-.07.24-.17a1.58,1.58,0,0,0-.12-.41l-.35-.91h-2.22l-.19.53a3.32,3.32,0,0,0-.22.75q0,.16.2.19l.44,0,0,0v.28l0,0-1,0-.88,0,0,0v-.28l0,0c.3,0,.48-.08.55-.18s.32-.7.77-1.8l1.13-2.83.38-1h.61l2.29,5.4q.13.31.24.35a1.22,1.22,0,0,0,.41.05l0,0v.28Zm-2.74-2.33-.93-2.27-.89,2.27h1.81Zm10.06,2.33,0,0q-.43,0-1.33,0t-1.33,0l0,0v-.29l0,0,.51,0a.19.19,0,0,0,.15-.16,9.85,9.85,0,0,0,.06-1.34v-1q-.22,0-1.4,0c-.73,0-1.21,0-1.44,0v1a9.82,9.82,0,0,0,.06,1.34.19.19,0,0,0,.15.16l.51,0,0,0v.29l0,0q-.43,0-1.33,0t-1.33,0l0,0v-.29l0,0,.51,0a.19.19,0,0,0,.15-.16,9.6,9.6,0,0,0,.06-1.34v-2.29a9.58,9.58,0,0,0-.06-1.34.19.19,0,0,0-.15-.16l-.51,0,0,0v-.29l0,0q.41,0,1.33,0t1.33,0l0,0v.3l0,0-.51,0a.19.19,0,0,0-.15.16,9.8,9.8,0,0,0-.06,1.34v.71l1.26,0q1.26,0,1.57,0v-.71a9.83,9.83,0,0,0-.06-1.34.19.19,0,0,0-.15-.16l-.51,0,0,0v-.29l0,0q.42,0,1.33,0t1.33,0l0,0v.3l0,0-.51,0a.19.19,0,0,0-.15.16,9.57,9.57,0,0,0-.06,1.34v2.29a9.59,9.59,0,0,0,.06,1.34.19.19,0,0,0,.15.16l.51,0,0,0Z" transform="translate(-236.1 -399.81)" fill="#1d1d1d" fill-rule="evenodd"/><path d="M300.46,400.5a6.71,6.71,0,0,0-9.22,6.88c0,.06,0,.12,0,.18a6.67,6.67,0,0,0,.54,1.92,6.72,6.72,0,0,0,12.34-.23,6.73,6.73,0,0,0-.17-5.45,6.76,6.76,0,0,0-3.51-3.31Zm-25.3,7.65-30.8.09v.06l30.79.09a2,2,0,0,1,0-.23Zm.15-.56-6.77.08v.06l6.69.08a2.11,2.11,0,0,1,.08-.23Zm-.14,1.12-12.35.08v.06l12.4.08a2.05,2.05,0,0,1,0-.23ZM291,412.1c.65.24,1.63-.28,1.37-1.13a1.07,1.07,0,0,0-1-.68,1.88,1.88,0,0,0-1.25.46,3.05,3.05,0,0,1-.94.55,3.71,3.71,0,0,1-.43.13,4.27,4.27,0,0,1-.59.09c-.22,0-.43,0-.65,0a4,4,0,0,1-2.29-.84l-.88-.63a.84.84,0,0,0-.62-.06c.18-.25-.37-.22-.37-.22a1.28,1.28,0,0,1,.52,0c-.3-.27-1-.33-1.21.06-.37-.5-.82.18-.82.18.14-.67.74-.78,1.39-.64-.85-.4-2-.54-2.2.2a.59.59,0,0,1,.32,0,.38.38,0,0,1,.14.08.59.59,0,0,1,.08.74h0a.83.83,0,0,1-.76.26.77.77,0,0,1-.37-.19A1.32,1.32,0,0,1,280,410a1.41,1.41,0,0,1,.22-1.36h0a2.18,2.18,0,0,1,1.79-.81,2.06,2.06,0,0,1,.44.07,5.2,5.2,0,0,1,1.49.8,12.9,12.9,0,0,0-3.41-2.07,5.69,5.69,0,0,0-2-.25,2.32,2.32,0,0,0,0,.39,1.49,1.49,0,0,0,.05.45.92.92,0,0,0,1.18.62h0a.49.49,0,0,0,.33-.63h0a.31.31,0,0,0-.16-.2.25.25,0,0,0-.21,0h0c-.08,0-.09.12-.06.19a.05.05,0,0,0,0,0h.08s.09,0,.09.07a.07.07,0,0,1,0,0l0,0h0c-.16,0-.31,0-.33-.19s.12-.25.24-.29h0a.46.46,0,0,1,.58.28.67.67,0,0,1-.44.88,1.12,1.12,0,0,1-1.38-.69h0a2.05,2.05,0,0,1-.11-.93,2.54,2.54,0,0,0-1.94,1.15,2.25,2.25,0,0,0-.29.74c-.11.57.1,1.08.93,1.26a.84.84,0,0,0,.52-.08.75.75,0,0,0,.42-.44v-.06h0a1,1,0,0,0,0-.3l0-.1s0-.1,0,0a.5.5,0,0,1-.47.34.41.41,0,0,1,0-.8c.43-.09.76.26.75.74a.83.83,0,0,1-.16.49,1.19,1.19,0,0,1-1.11.42,1.38,1.38,0,0,1-.65-.27,1.42,1.42,0,0,1-.19-2,2.8,2.8,0,0,1,2.27-1.29,1.84,1.84,0,0,1,.11-.33,2.09,2.09,0,0,1,1.78-1.14,2.71,2.71,0,0,1,1.9.43.27.27,0,0,1,.38.28,5.72,5.72,0,0,1,.6.6h0c.37.43.71.91,1.06,1.38.76,1,1.3,2.44,2.58,3l.1,0-.13-.07a3.87,3.87,0,0,1-.74-.69,5.49,5.49,0,0,1-1.19-3c0-.06,0-.12,0-.19s0-.05,0-.08,0-.26,0-.39a2.27,2.27,0,0,1,0-.45v0a5.18,5.18,0,0,0-.06-.58,1.59,1.59,0,0,0-.43-.82,1.13,1.13,0,0,0-.88-.24c-.08,0-.37.26-.25.38-.24-.09-.41.13-.21.37-.34.13,0,.47.24.41a.21.21,0,0,0,.17-.29.14.14,0,0,0-.18-.1h0c.08,0,.22,0,.24.11a.28.28,0,0,1-.2.37.51.51,0,0,1-.6-.31c-.21-.65.52-1.15,1.1-1.1a1.24,1.24,0,0,1,1.1,1c0,.13.06.26.08.39h0a4.23,4.23,0,0,1,1.29-2.39,2.64,2.64,0,0,1,1.34-.59,3.09,3.09,0,0,1,1.17,0,1.57,1.57,0,0,1,.86.5,1.33,1.33,0,0,1,.26,1,.9.9,0,0,1-.16.42,1.31,1.31,0,0,1-1.24.39h0a1.12,1.12,0,0,1-.53-.26.86.86,0,0,1-.27-.46.72.72,0,0,1,0-.25.6.6,0,0,1,.14-.31.61.61,0,0,1,.57-.18h0a.52.52,0,0,1,.38.3.3.3,0,0,1,0,.33.18.18,0,0,1-.12,0,.22.22,0,0,1-.2-.28v0l.12,0v.07a.17.17,0,0,0,0,.1s0,0,0,0,0,0,0,0a.23.23,0,0,0,0-.12.29.29,0,0,0-.26-.21.45.45,0,0,0-.49.25.39.39,0,0,0,0,.13h0a.53.53,0,0,0,0,.12.67.67,0,0,0,.2.42.88.88,0,0,0,.46.24,1.36,1.36,0,0,0,.74-.08.84.84,0,0,0,.4-.41.78.78,0,0,0,.05-.34,1.31,1.31,0,0,0-.31-.79,1.48,1.48,0,0,0-.74-.37,2.56,2.56,0,0,0-.94,0,2.71,2.71,0,0,0-1.26.58,2.93,2.93,0,0,0-.28.26,1.21,1.21,0,0,1,.89-.19.72.72,0,0,1,.57.46.6.6,0,0,1,0,.36h0a.48.48,0,0,1-.24.26.54.54,0,0,1-.37,0,.28.28,0,0,1-.21-.18.25.25,0,0,1,0-.17.18.18,0,0,1,.23-.11.23.23,0,0,1,.1.07.08.08,0,0,1,0,.07h0l0,0s-.06,0-.09,0l0,0h0l0,0a.08.08,0,0,0,0,.06.14.14,0,0,0,0,.07.26.26,0,0,0,.18,0,.36.36,0,0,0,.22-.11h0a.4.4,0,0,0,.06-.48c-.38-.54-1.1-.27-1.53.14a2.32,2.32,0,0,0-.47.7A5.26,5.26,0,0,0,285,406c0,.15,0,.3,0,.44s0,.06,0,.09c0,.25.08.5.1.71v.07h0l.05.21a4.14,4.14,0,0,1,.21-1.46,2.92,2.92,0,0,1,.62-1,1.92,1.92,0,0,1,2.21-.65c.22.11.27.27.25.38s-.13.2-.34.18a.24.24,0,0,1-.2-.35l.06,0c0,.12,0,.14.1.2s.19,0,.2-.08,0-.21-.27-.33a2,2,0,0,0-1.88.72,3.33,3.33,0,0,0-.62,1.14,3.73,3.73,0,0,0-.12,1.67,4.71,4.71,0,0,0,.16.66,4.09,4.09,0,0,0,.55.9,2.81,2.81,0,0,1-.33-.66,2.52,2.52,0,0,1,.94-2.93s-1,1-.26,1.53a1.54,1.54,0,0,0-.4,1.44,2.64,2.64,0,0,0,1.06,1.5,3,3,0,0,0,1,.32,1.93,1.93,0,0,0,1.85-1.36,1.11,1.11,0,0,0-.26-1.05.74.74,0,0,0-.76-.1c-.35.26-.14.59.34.36l0,.1,0,0a.49.49,0,0,1-.3.08.37.37,0,0,1-.3-.13c-.16-.23,0-.48.26-.57.72-.33,1.36.52,1.24,1.2a1.76,1.76,0,0,1-.3.74h.12a.27.27,0,0,1,.23.28,3.5,3.5,0,0,0,.7-1.38,3.81,3.81,0,0,0,.09-1.29v-.1a3.15,3.15,0,0,0-.94-1.94,1.78,1.78,0,0,0-.42-.23,1.47,1.47,0,0,0-.4-.09,2.35,2.35,0,0,0-2,.66h0a1.37,1.37,0,0,0-.31.83,1.52,1.52,0,0,0,.14.7,1.43,1.43,0,0,0,.45.56,1.12,1.12,0,0,0,1,.09,1.49,1.49,0,0,0,.64-.42,1,1,0,0,0,.22-.65.67.67,0,0,0-.09-.31.52.52,0,0,0-.16-.17h0a.45.45,0,0,0-.42-.07.61.61,0,0,0-.33.23.41.41,0,0,0-.06.18.41.41,0,1,1,.55.51.45.45,0,0,1-.24.07.32.32,0,0,1-.13-.05l-.06,0h0a.39.39,0,0,1-.1-.09.44.44,0,0,1-.07-.14.49.49,0,0,1,0-.15.54.54,0,0,1,.08-.32.82.82,0,0,1,.19-.17.74.74,0,0,1,.51-.13.77.77,0,0,1,.48,1,1,1,0,0,1-.24.44,1.65,1.65,0,0,1-.63.43,1.61,1.61,0,0,1-.5.1,1.24,1.24,0,0,1-.49-.1,1,1,0,0,1-.21-.11h0a1.7,1.7,0,0,1-.68-1.17c-.15-1.41,1.33-2,2.48-1.89a1.78,1.78,0,0,1,.46.1,2.13,2.13,0,0,1,.48.26h0a2.56,2.56,0,0,1,.64.83c0,.1.09.2.12.3a6.91,6.91,0,0,1,9.51-6.16h0a7,7,0,0,1,3.58,3.33,6.88,6.88,0,0,1,.72,3.06,4,4,0,0,1,.2-.53,2.56,2.56,0,0,1,.64-.83h0a2.12,2.12,0,0,1,.48-.26,1.77,1.77,0,0,1,.46-.1c1.15-.1,2.63.48,2.48,1.89a1.7,1.7,0,0,1-.68,1.17h0a1,1,0,0,1-.21.11,1.24,1.24,0,0,1-.49.1,1.61,1.61,0,0,1-.5-.1,1.66,1.66,0,0,1-.63-.43,1,1,0,0,1-.24-.44.77.77,0,0,1,.48-1,.74.74,0,0,1,.51.13.83.83,0,0,1,.19.17.54.54,0,0,1,.08.32.5.5,0,0,1,0,.15.44.44,0,0,1-.07.14.4.4,0,0,1-.1.09h0l-.06,0a.32.32,0,0,1-.13.05.45.45,0,0,1-.24-.07.41.41,0,1,1,.55-.51.4.4,0,0,0-.06-.18.61.61,0,0,0-.33-.23.45.45,0,0,0-.42.07h0a.52.52,0,0,0-.16.17.67.67,0,0,0-.09.31.93.93,0,0,0,0,.34.94.94,0,0,0,.17.31,1.49,1.49,0,0,0,.64.42,1.12,1.12,0,0,0,1-.09,1.43,1.43,0,0,0,.45-.56,1.53,1.53,0,0,0,.11-.34,1.51,1.51,0,0,0,0-.36,1.37,1.37,0,0,0-.31-.83h0a2.35,2.35,0,0,0-2-.66,1.48,1.48,0,0,0-.4.09,1.79,1.79,0,0,0-.41.23,3.58,3.58,0,0,0-.17,4.71.27.27,0,0,1,.23-.28H306a1.76,1.76,0,0,1-.3-.74c-.11-.68.52-1.53,1.24-1.2.21.1.42.34.26.57a.37.37,0,0,1-.3.13.49.49,0,0,1-.3-.08l0,0,0-.1c.48.23.68-.1.33-.36a.74.74,0,0,0-.76.1,1.11,1.11,0,0,0-.26,1.05,1.93,1.93,0,0,0,1.85,1.36,3,3,0,0,0,1-.32,2.64,2.64,0,0,0,1.06-1.5,1.54,1.54,0,0,0-.4-1.44c.76-.49-.26-1.53-.26-1.53a2.52,2.52,0,0,1,.94,2.93,2.81,2.81,0,0,1-.33.66,4.11,4.11,0,0,0,.55-.9,4.7,4.7,0,0,0,.16-.66,3.73,3.73,0,0,0-.12-1.67,3.34,3.34,0,0,0-.62-1.14,2,2,0,0,0-1.88-.72c-.27.11-.29.26-.27.33s.13.11.2.08.09-.08.1-.2l.06,0a.24.24,0,0,1-.2.35c-.21,0-.32-.08-.34-.18s0-.26.25-.38a1.92,1.92,0,0,1,2.21.65,2.91,2.91,0,0,1,.62,1,4.13,4.13,0,0,1,.21,1.46l.05-.21h0v-.07c0-.21.07-.46.11-.71v-.08q0-.22,0-.44a5.27,5.27,0,0,0-.42-1.85,2.32,2.32,0,0,0-.47-.69c-.43-.41-1.15-.68-1.53-.14a.4.4,0,0,0,.06.48h0a.36.36,0,0,0,.22.11.26.26,0,0,0,.18,0,.14.14,0,0,0,0-.07.08.08,0,0,0,0-.06l0,0h0l0,0s-.06,0-.09,0a.05.05,0,0,1,0,0h0a.07.07,0,0,1,0-.07.22.22,0,0,1,.1-.07.18.18,0,0,1,.23.11.25.25,0,0,1,0,.17.28.28,0,0,1-.21.18.54.54,0,0,1-.37,0,.48.48,0,0,1-.24-.26h0a.6.6,0,0,1,0-.36.72.72,0,0,1,.57-.46,1.21,1.21,0,0,1,.89.19,2.93,2.93,0,0,0-.28-.26,2.71,2.71,0,0,0-1.26-.58,2.55,2.55,0,0,0-.94,0,1.48,1.48,0,0,0-.74.37,1.31,1.31,0,0,0-.31.79.78.78,0,0,0,.05.34.84.84,0,0,0,.4.41,1.35,1.35,0,0,0,.74.08.88.88,0,0,0,.46-.24.67.67,0,0,0,.2-.42.53.53,0,0,0,0-.12h0a.39.39,0,0,0,0-.13.45.45,0,0,0-.49-.25.29.29,0,0,0-.26.21.22.22,0,0,0,0,.12s0,0,0,0,0,0,0,0a.17.17,0,0,0,0-.1v-.07l.12,0v0a.22.22,0,0,1-.2.28.18.18,0,0,1-.12,0,.3.3,0,0,1,0-.33.52.52,0,0,1,.38-.3h0a.62.62,0,0,1,.58.18.6.6,0,0,1,.14.31.73.73,0,0,1,0,.25.86.86,0,0,1-.27.46,1.12,1.12,0,0,1-.53.26h0a1.31,1.31,0,0,1-1.24-.39.9.9,0,0,1-.16-.42,1.33,1.33,0,0,1,.26-1,1.57,1.57,0,0,1,.86-.5,3.09,3.09,0,0,1,1.17,0,2.64,2.64,0,0,1,1.34.59A4.23,4.23,0,0,1,311,405h0c0-.13.05-.26.08-.39a1.24,1.24,0,0,1,1.1-1c.58,0,1.3.45,1.1,1.1a.51.51,0,0,1-.6.31.28.28,0,0,1-.2-.37c0-.08.15-.13.24-.11h0a.14.14,0,0,0-.18.1.21.21,0,0,0,.17.29c.2.06.58-.28.24-.41.2-.24,0-.46-.21-.37.12-.12-.16-.36-.25-.38a1.13,1.13,0,0,0-.88.24,1.58,1.58,0,0,0-.43.82,5.1,5.1,0,0,0-.06.58v0a2.26,2.26,0,0,1,0,.45q0,.19,0,.39s0,.05,0,.08,0,.12,0,.19a5.49,5.49,0,0,1-1.19,3,3.87,3.87,0,0,1-.74.69l-.13.07.1,0c1.29-.53,1.82-2,2.58-3,.35-.47.69-1,1.06-1.38h0a5.73,5.73,0,0,1,.6-.6.27.27,0,0,1,.38-.28,2.72,2.72,0,0,1,1.9-.43,2.09,2.09,0,0,1,1.78,1.14,1.82,1.82,0,0,1,.11.33,2.8,2.8,0,0,1,2.27,1.29,1.42,1.42,0,0,1-.19,2,1.38,1.38,0,0,1-.65.27,1.19,1.19,0,0,1-1.11-.42.83.83,0,0,1-.16-.49c0-.47.32-.83.75-.74a.41.41,0,0,1,0,.8.5.5,0,0,1-.47-.34c0-.11,0,0,0,0a1.06,1.06,0,0,0,0,.4h0V409a.75.75,0,0,0,.42.44.84.84,0,0,0,.52.08c.82-.18,1-.69.93-1.26a2.23,2.23,0,0,0-.3-.74,2.54,2.54,0,0,0-1.94-1.15,2.05,2.05,0,0,1-.11.93h0a1.12,1.12,0,0,1-1.38.69.67.67,0,0,1-.44-.88.46.46,0,0,1,.58-.28h0c.13,0,.26.15.24.29s-.18.23-.33.19h0l0,0a.07.07,0,0,1,0,0s.05-.06.09-.07h.08a0,0,0,0,0,0,0c0-.07,0-.17-.06-.19h0a.25.25,0,0,0-.21,0,.31.31,0,0,0-.16.2h0a.49.49,0,0,0,.33.63h0a.92.92,0,0,0,1.18-.62,1.47,1.47,0,0,0,.05-.45,2.25,2.25,0,0,0,0-.39,5.69,5.69,0,0,0-2,.25,12.89,12.89,0,0,0-3.41,2.07,5.21,5.21,0,0,1,1.49-.8,2.05,2.05,0,0,1,.44-.07,2.18,2.18,0,0,1,1.79.81h0a1.41,1.41,0,0,1,.22,1.36,1.32,1.32,0,0,1-.36.54.78.78,0,0,1-.37.19.83.83,0,0,1-.76-.26h0a.59.59,0,0,1,.08-.74.38.38,0,0,1,.14-.08.59.59,0,0,1,.32,0c-.21-.73-1.35-.59-2.2-.2.65-.14,1.25,0,1.39.64,0,0-.44-.69-.82-.18-.17-.39-.91-.32-1.21-.06a1.29,1.29,0,0,1,.52,0s-.55,0-.37.22a.84.84,0,0,0-.62.06,5.53,5.53,0,0,1-3.17,1.47c-.22,0-.43,0-.65,0a4.25,4.25,0,0,1-.59-.09l-.43-.13a3.05,3.05,0,0,1-.94-.55,1.88,1.88,0,0,0-1.25-.46,1.07,1.07,0,0,0-1,.68c-.25.85.72,1.37,1.37,1.13a.55.55,0,0,0,.27-.26.53.53,0,0,0,0-.41c-.05-.1-.25-.28-.36-.18s0,.05,0,.07a.19.19,0,0,1,0,.24c-.11.11-.29,0-.31-.12a.37.37,0,0,1,0-.15.42.42,0,0,1,.38-.24.43.43,0,0,1,.17,0l.05,0a.71.71,0,0,1,.2.89.54.54,0,0,1-.21.24.65.65,0,0,1-.21.09c-.79.18-1.79-.37-1.57-1.32a7,7,0,0,1-1.95,1.69,6.88,6.88,0,0,1-8.81-1.56c.1.87-.84,1.36-1.59,1.19a.66.66,0,0,1-.21-.09.54.54,0,0,1-.21-.24.71.71,0,0,1,.2-.89l.05,0a.43.43,0,0,1,.17,0,.42.42,0,0,1,.38.24.37.37,0,0,1,0,.15c0,.12-.2.23-.31.12a.19.19,0,0,1,0-.24s0,0,0-.07-.31.08-.36.18a.54.54,0,0,0,0,.41.55.55,0,0,0,.27.26Zm1-1.89a1.22,1.22,0,0,0-.52-.16,1.73,1.73,0,0,0-.84.16,3.73,3.73,0,0,0,.65-1.7,6.77,6.77,0,0,0,.71,1.71Zm-2,.37.08-.07H290a.27.27,0,0,1-.22-.3,3,3,0,0,1-3.17.39c-1.26-.52-2.88-2.22-4.13-2.56a1.9,1.9,0,0,0-2,.71,1.14,1.14,0,0,0-.23.7,1.11,1.11,0,0,0,.35.85.67.67,0,0,0,.43.15.55.55,0,0,0,.41-.21.33.33,0,0,0-.06-.44.27.27,0,0,1,0,.12.26.26,0,0,1-.52-.09c.07-.88.9-1,1.54-.9,1.89.25,3.27,2.41,5.27,2.41l.5,0,.46-.06a3.07,3.07,0,0,0,.41-.1,3.46,3.46,0,0,0,.4-.17,2.57,2.57,0,0,0,.6-.41h0Zm-8.6-5.6a1.89,1.89,0,0,0-.54-.11,2.29,2.29,0,0,0-2.17,1,1.82,1.82,0,0,0-.1.26,6.62,6.62,0,0,1,2,.25c1.55.42,3.46,2.1,4.79,3.13-.5-.61-.85-1.36-1.33-2a11.52,11.52,0,0,0-1.62-1.91.27.27,0,0,1-.41-.25,2,2,0,0,0-.52-.15,1.25,1.25,0,0,0-1.14.41c-.44-.58-1.22.3-1.22.3a2,2,0,0,1,2.27-.94Zm5.12,4.94a3.09,3.09,0,0,1-.33-.4,1.91,1.91,0,0,0,.33.4Zm34.27-1.2,12.35.08v.06l-12.4.09a2.19,2.19,0,0,0,0-.23Zm-.14-1.12,6.77.08v.06l-6.69.08a2.09,2.09,0,0,0-.08-.23Zm.15.56,30.8.09v.06l-30.79.09a2.26,2.26,0,0,0,0-.23Zm-16.94,2.14a6.82,6.82,0,0,0,.83-2,3.79,3.79,0,0,0,.68,1.94,1.73,1.73,0,0,0-.84-.16,1.22,1.22,0,0,0-.67.26ZM314.56,405a2,2,0,0,1,2.27.94s-.78-.88-1.22-.3a1.25,1.25,0,0,0-1.14-.41,2,2,0,0,0-.52.15.27.27,0,0,1-.41.25,11.51,11.51,0,0,0-1.62,1.91c-.48.66-.83,1.4-1.33,2,1.33-1,3.24-2.71,4.79-3.13a6.62,6.62,0,0,1,2-.25,1.86,1.86,0,0,0-.1-.26,2.29,2.29,0,0,0-2.17-1,1.88,1.88,0,0,0-.54.11Zm.58,4.84a.26.26,0,0,1-.52.09.26.26,0,0,1,0-.12.33.33,0,0,0-.06.44.55.55,0,0,0,.41.21.67.67,0,0,0,.43-.15,1.11,1.11,0,0,0,.35-.85,1.14,1.14,0,0,0-.23-.7,1.9,1.9,0,0,0-2-.71c-1.25.33-2.87,2-4.13,2.56a3,3,0,0,1-3.17-.39.27.27,0,0,1-.22.3h-.08a2.61,2.61,0,0,0,.67.48,3.39,3.39,0,0,0,.4.17,3.06,3.06,0,0,0,.41.1l.46.06.5,0c2,0,3.38-2.16,5.27-2.41.64-.09,1.47,0,1.54.9Zm-5.7.1a1.9,1.9,0,0,0,.33-.4,3.09,3.09,0,0,1-.33.4ZM298,411a2.55,2.55,0,0,0-.24-.33l.24-.23h0l.24.23a2.52,2.52,0,0,0-.24.33Zm0-.71-.19-.2.16-.15,0,0,0,0,.16.15-.19.2Zm.27-.28-.14-.14,0-.05a3.75,3.75,0,0,1,.79-.65,1.13,1.13,0,0,1,.73-.12.37.37,0,0,1,.22.12,2,2,0,0,0-1.24.55l-.31.29Zm1.71-.85H300a.52.52,0,0,1,.3.09.56.56,0,0,1,.22.42.48.48,0,0,1-.2.39.39.39,0,0,1-.48,0,.1.1,0,0,1,0-.07.09.09,0,0,1,0-.06.06.06,0,0,1,.08,0l0,0,0,0a.27.27,0,0,0,.22,0,.28.28,0,0,0,.14-.13.37.37,0,0,0,0-.22.39.39,0,0,0-.14-.26.44.44,0,0,0-.26-.09h0a.47.47,0,0,1-.16.44,1.5,1.5,0,0,1-.58.25c-.22.06-.28.06-.38.33a.54.54,0,0,1,0-.32.48.48,0,0,1,.42-.3h0c0-.13.06-.24.2-.21a.07.07,0,0,1,.05.06.07.07,0,0,1-.05.08h0c-.1,0-.1.15,0,.15a.52.52,0,0,0,.39-.25.4.4,0,0,0,0-.23,2.19,2.19,0,0,0-1.13.45c-.14.11-.27.23-.4.36l.25.22c.14.11.57.3.62,0,0-.12.1-.15.13,0a.27.27,0,0,1-.08.21c-.12.14-.36.1-.5,0l-.06,0-.06,0-.06,0a3.66,3.66,0,0,1-.32-.26l-.15.15,0,.05.29.28a4.06,4.06,0,0,0-.39.53,4,4,0,0,0-.39-.53l.29-.28,0-.05-.15-.15a3.6,3.6,0,0,1-.32.26l-.06,0-.06,0-.06,0c-.14.05-.38.09-.5,0a.27.27,0,0,1-.08-.21c0-.12.11-.09.13,0,0,.32.48.14.62,0l.25-.22c-.13-.13-.27-.25-.4-.36a2.19,2.19,0,0,0-1.13-.45.4.4,0,0,0,0,.23.52.52,0,0,0,.39.25c.08,0,.07-.11,0-.15h0a.07.07,0,0,1-.06-.08.07.07,0,0,1,.05-.06c.14,0,.2.08.2.21h0a.48.48,0,0,1,.42.3.54.54,0,0,1,0,.32c-.1-.26-.16-.27-.38-.33a1.51,1.51,0,0,1-.58-.25.47.47,0,0,1-.16-.44h0a.44.44,0,0,0-.26.09.39.39,0,0,0-.14.26.37.37,0,0,0,0,.22.28.28,0,0,0,.14.13.27.27,0,0,0,.22,0l0,0,0,0a.06.06,0,0,1,.08,0,.09.09,0,0,1,0,.06.1.1,0,0,1,0,.07.39.39,0,0,1-.48,0,.48.48,0,0,1-.2-.39.55.55,0,0,1,.22-.42.52.52,0,0,1,.3-.09H296a.51.51,0,0,1,.34-.26,2.1,2.1,0,0,0,3.27,0,.51.51,0,0,1,.34.26Zm-3.8,0a.36.36,0,0,1,.22-.12,1.13,1.13,0,0,1,.73.12,3.74,3.74,0,0,1,.79.65l0,.05-.14.14-.31-.29a2,2,0,0,0-1.24-.55Zm4.9-.14c.37.11.71.2,1-.12-.07.59-.58.62-1,.46-.09.2-.11.25-.3.27.09-.49-.46-.56-.75-.55a1,1,0,0,1,.33-.17,1.27,1.27,0,0,1,.66.12Zm-6.17,0a1.27,1.27,0,0,1,.66-.12,1,1,0,0,1,.33.17c-.28,0-.84.06-.75.55-.19,0-.21-.06-.3-.27-.37.17-.88.14-1-.46.3.32.64.23,1,.12Zm3.08-6.82a2.53,2.53,0,0,0,.24.33l-.24.23h0l-.24-.23a2.56,2.56,0,0,0,.24-.33Zm0,.71.19.2-.16.15,0,0,0,0-.16-.15.19-.2Zm.27.28.31.29a2,2,0,0,0,1.24.55.36.36,0,0,1-.22.12,1.13,1.13,0,0,1-.73-.12,3.76,3.76,0,0,1-.79-.65l0-.05.14-.15Zm1.71.85a.51.51,0,0,1-.34.26,2.1,2.1,0,0,0-3.27,0,.51.51,0,0,1-.34-.26h-.08a.52.52,0,0,1-.3-.09.55.55,0,0,1-.22-.42.48.48,0,0,1,.2-.39.39.39,0,0,1,.48,0,.1.1,0,0,1,0,.07.09.09,0,0,1,0,.06.06.06,0,0,1-.08,0l0,0,0,0a.26.26,0,0,0-.22,0,.28.28,0,0,0-.14.13.37.37,0,0,0,0,.22.39.39,0,0,0,.14.26.44.44,0,0,0,.26.09h0a.47.47,0,0,1,.16-.44,1.49,1.49,0,0,1,.58-.25c.22-.06.28-.06.38-.33a.54.54,0,0,1,0,.32.48.48,0,0,1-.42.3h0c0,.13-.06.24-.2.21a.07.07,0,0,1-.05-.07.07.07,0,0,1,.06-.08h0c.1,0,.1-.15,0-.15a.52.52,0,0,0-.39.25.4.4,0,0,0,0,.23,2.19,2.19,0,0,0,1.13-.45c.14-.11.27-.23.4-.36l-.25-.22c-.14-.11-.57-.3-.62,0,0,.12-.1.15-.13,0a.27.27,0,0,1,.08-.21c.12-.14.36-.1.5,0l.06,0,.06,0,.06,0a3.62,3.62,0,0,1,.32.26l.15-.15,0-.05-.29-.28A4,4,0,0,0,298,402a4,4,0,0,0,.39.53l-.29.28,0,.05.15.15a3.54,3.54,0,0,1,.32-.26l.06,0,.06,0,.06,0c.14-.05.38-.09.5,0a.27.27,0,0,1,.08.21c0,.12-.11.09-.13,0,0-.32-.48-.14-.62,0l-.25.22c.13.13.27.25.4.36a2.19,2.19,0,0,0,1.13.45.41.41,0,0,0,0-.23.52.52,0,0,0-.39-.25c-.08,0-.07.11,0,.15h0a.07.07,0,0,1,.05.08.07.07,0,0,1-.05.07c-.14,0-.2-.08-.2-.21h0a.48.48,0,0,1-.42-.3.54.54,0,0,1,0-.32c.1.26.16.27.38.33a1.49,1.49,0,0,1,.58.25.47.47,0,0,1,.16.44h0a.44.44,0,0,0,.26-.09.39.39,0,0,0,.14-.26.36.36,0,0,0,0-.22.28.28,0,0,0-.14-.13.26.26,0,0,0-.22,0l0,0,0,0a.06.06,0,0,1-.08,0,.09.09,0,0,1,0-.06.1.1,0,0,1,0-.07.39.39,0,0,1,.48,0,.48.48,0,0,1,.2.39.56.56,0,0,1-.22.42.52.52,0,0,1-.3.09Zm-3.8,0a2,2,0,0,0,1.24-.55l.31-.29.14.15,0,.05a3.75,3.75,0,0,1-.79.65,1.13,1.13,0,0,1-.73.12.36.36,0,0,1-.22-.12Zm4.9.14a1.27,1.27,0,0,1-.66.12,1,1,0,0,1-.33-.17c.28,0,.84-.06.75-.55.19,0,.21.06.3.27.37-.17.88-.14,1,.46-.3-.32-.64-.23-1-.12Zm-6.17,0c-.37-.11-.71-.2-1,.12.07-.59.58-.62,1-.46.09-.2.11-.25.3-.27-.09.49.46.56.75.55a1,1,0,0,1-.33.17,1.27,1.27,0,0,1-.66-.12Zm5.4.35a.79.79,0,0,1,.39.09.81.81,0,0,1,.36.64,2,2,0,0,1,.72.28c.08-.09.41-.4.5-.4a.12.12,0,0,1,.11.1s0,0,0,.07l-.19.14a1,1,0,0,0-.2.22,2.51,2.51,0,0,1,.28.31,2.18,2.18,0,0,1,.22.36,2.44,2.44,0,0,1,.24,1.09,1.11,1.11,0,0,1-1,1.12,2.59,2.59,0,0,1-1.22-.19,1.47,1.47,0,0,1-.82.17.48.48,0,0,1-.2-.06c-.16-.1-.22-.3,0-.41a.41.41,0,0,1,.21-.06h0a2.72,2.72,0,0,1,.63.12,2.75,2.75,0,0,0,.42-.53c.11-.2.21-.42.31-.63l.3-.65a3.52,3.52,0,0,1,.33-.6,1.19,1.19,0,0,0-.57-.28c0,.55-.29,1.61-1,1.61-.37,0-.49-.36-.49-.67a1.15,1.15,0,0,1,.39-.82,1.27,1.27,0,0,1,.95-.31.61.61,0,0,0-.14-.39.52.52,0,0,0-.45-.15,1.45,1.45,0,0,0-.87.34,1.65,1.65,0,0,0-.29.36v.07a2.23,2.23,0,0,1-.12.95l.12.14,0,0a.07.07,0,0,1,0,.1h-.05l-.06-.06-.06-.06-.06.13a.93.93,0,0,0,.17.31,1.27,1.27,0,0,0,.61.39s.14,0,.16.07,0,.12-.1.09a.8.8,0,0,0-1.55-.2.41.41,0,0,1-.17,0,.53.53,0,0,1-.3-.21,2.86,2.86,0,0,1-.53.27c0,.34.07.88.55,1a1.36,1.36,0,0,0,1.24-.74l.15.12a1.67,1.67,0,0,1-.9.77,1.24,1.24,0,0,1-.55,0,1,1,0,0,1-.51-.33,1.65,1.65,0,0,1-.29-.71,1.46,1.46,0,0,1-1.08-.18,1,1,0,0,1-.26-.26,1,1,0,0,1-.44.3.41.41,0,0,1-.17,0,.53.53,0,0,1-.3-.21,2.85,2.85,0,0,1-.53.27c0,.34.07.88.55,1a1.36,1.36,0,0,0,1.24-.74l.15.12a1.67,1.67,0,0,1-.9.77,1.24,1.24,0,0,1-.55,0,.94.94,0,0,1-.51-.33,1.64,1.64,0,0,1-.29-.71,1.46,1.46,0,0,1-1.08-.18.88.88,0,0,1-.38-.51.75.75,0,0,1,.05-.54,1.1,1.1,0,0,1,.46-.43,2.5,2.5,0,0,1,1.46-.2c.2-.26.73-.83,1.18-.83s.52.34.57.67a1.42,1.42,0,0,1,0,.29,2.69,2.69,0,0,1,1.32-.13c.2-.26.73-.83,1.18-.83a.55.55,0,0,1,.5.4,1.59,1.59,0,0,1,1.21-.67Zm-1.32.83a1.61,1.61,0,0,0-.19.44,2.13,2.13,0,0,0-.06.35l-.11-.08h0c.06-.2.14-.56-.1-.68s-.51.18-.64.33l-.12,0,.11-.15a2.18,2.18,0,0,1,.23-.27,1.31,1.31,0,0,1,.33-.25.45.45,0,0,1,.33,0,.51.51,0,0,1,.22.34Zm-.25,1a1.48,1.48,0,0,0,0,.27l0,.08a1.38,1.38,0,0,1-.5.47.34.34,0,0,1-.19,0,.23.23,0,0,1-.16-.12,3,3,0,0,0,.39-.35,3,3,0,0,0,.33-.5l.17.12Zm.16-.06a1.87,1.87,0,0,1,.06-.43,1.35,1.35,0,0,1,.06-.17,2.61,2.61,0,0,1-.09.54l0,.08Zm1.75,2c.05-.07.15-.14.22-.24a2.43,2.43,0,0,0,.18-.27,4.33,4.33,0,0,0,.28-.61c.08-.22.15-.43.23-.65a3.18,3.18,0,0,1,.28-.62,2.37,2.37,0,0,1,.57,1.54.94.94,0,0,1-.73,1,2.16,2.16,0,0,1-1-.11Zm-1.11-.06c.12-.07.56,0,.57.05a.63.63,0,0,1-.34.1h-.06a.39.39,0,0,1-.15,0c-.06,0-.1-.09,0-.13Zm.31-2.15a1.07,1.07,0,0,1,.23-.32,1.23,1.23,0,0,1,.84-.29,1.83,1.83,0,0,1-.27.91c-.12.21-.32.53-.66.53a.2.2,0,0,1-.17-.12.84.84,0,0,1,0-.7Zm-4.37.85a1.07,1.07,0,0,1-.35.27.34.34,0,0,1-.19,0,.23.23,0,0,1-.16-.12,2.15,2.15,0,0,0,.71-.84l0,0v0a.75.75,0,0,0-.05.54l0,.08Zm.13-.77-.06,0h0c.06-.2.14-.56-.1-.68s-.51.18-.64.33l-.12,0,.11-.15a2.18,2.18,0,0,1,.23-.27,1.31,1.31,0,0,1,.33-.25.45.45,0,0,1,.33,0,.58.58,0,0,1,.24.43,1.38,1.38,0,0,1,0,.41,1.19,1.19,0,0,0-.31.25Zm2.8-.19-.22-.11a.65.65,0,0,1,.25-.24c.07,0,.09,0,.1,0a.75.75,0,0,1,0,.35h0l-.08,0Zm0,.19a2.56,2.56,0,0,1-.3.44,1.76,1.76,0,0,1-.3.3,1.9,1.9,0,0,1,.27-.9l.26.11.08,0Zm-.64-.25a1.49,1.49,0,0,0-.14,1.12,2.05,2.05,0,0,1-.42.21,4.46,4.46,0,0,1,.46-1.35l.1,0Zm-.48-.07a2.54,2.54,0,0,0-.43,1.27c0,.08,0,.16,0,.24a2,2,0,0,1-.53,0,1.16,1.16,0,0,1-.35-.09l-.14-.08a.58.58,0,0,1-.19-.22,1.64,1.64,0,0,0,.17-.25l.06-.13.06.06.06.06H296a.07.07,0,0,0,0-.1l0,0-.12-.14c0-.14.08-.28.1-.42h0a2.14,2.14,0,0,1,.53-.17,2.88,2.88,0,0,1,.69,0Zm-1.46.35v.05l0,.08-.06,0,.09-.09Zm-.18.21.09.08a1.31,1.31,0,0,1-.13.25l0,0a.58.58,0,0,1,0-.31l0-.05Zm-.37-.43-.22-.11a.65.65,0,0,1,.25-.24c.07,0,.09,0,.1,0a.76.76,0,0,1,0,.35h0l-.08,0Zm0,.19a2.53,2.53,0,0,1-.3.44,1.74,1.74,0,0,1-.3.3,1.9,1.9,0,0,1,.27-.9l.26.11.08,0Zm-.64-.25a1.49,1.49,0,0,0-.14,1.12,2.06,2.06,0,0,1-.42.21,4.45,4.45,0,0,1,.46-1.35l.1,0Zm-.48-.07a2.54,2.54,0,0,0-.43,1.27c0,.08,0,.16,0,.24a2.05,2.05,0,0,1-.53,0,1.16,1.16,0,0,1-.35-.09l-.14-.08a.64.64,0,0,1-.22-.75A1,1,0,0,1,293,406a2.13,2.13,0,0,1,.53-.17,2.88,2.88,0,0,1,.69,0Zm6.12-5a6.32,6.32,0,1,1-4.71,0,6.36,6.36,0,0,1,4.71,0Zm0,.3h0a6,6,0,1,1-4.56-.06A6.07,6.07,0,0,1,300.27,401.17Z" transform="translate(-236.1 -399.81)" fill="#1d1d1d" fill-rule="evenodd"/><path d="M284.23,439.3,258,439.23v-.05l26.17-.07a1.9,1.9,0,0,0,0,.2Zm9.63-1.5a2.65,2.65,0,0,0-.28.34,1.64,1.64,0,0,1,.28-.34Zm-4-.11c.12.57.63.67,1.18.55-.72.34-1.69.46-1.87-.17a.5.5,0,0,0,.27,0,.32.32,0,0,0,.12-.07.5.5,0,0,0,.07-.63h0a.7.7,0,0,0-.65-.22.66.66,0,0,0-.32.16,1.12,1.12,0,0,0-.31.46,1.2,1.2,0,0,0,.18,1.16h0a1.85,1.85,0,0,0,1.52.69,1.75,1.75,0,0,0,.38-.06,4.42,4.42,0,0,0,1.26-.68,11,11,0,0,1-2.9,1.76,4.84,4.84,0,0,1-1.74.21,1.89,1.89,0,0,1,0-.33,1.25,1.25,0,0,1,0-.38.78.78,0,0,1,1-.53h0a.42.42,0,0,1,.28.53h0a.27.27,0,0,1-.14.17.21.21,0,0,1-.18,0h0c-.07,0-.07-.1,0-.16l0,0h.06s.08,0,.08-.06a.06.06,0,0,0,0,0l0,0h0c-.13,0-.26,0-.28.16s.1.22.21.25h0a.39.39,0,0,0,.49-.24.57.57,0,0,0-.38-.74A1,1,0,0,0,287,440h0a1.74,1.74,0,0,0-.1.79,2.16,2.16,0,0,1-1.65-1,1.9,1.9,0,0,1-.25-.63c-.09-.48.09-.92.79-1.07a.72.72,0,0,1,.44.07.64.64,0,0,1,.36.37v.05h0a.81.81,0,0,1,0,.25l0,.09s0,.08,0,0a.43.43,0,0,0-.4-.29.35.35,0,0,0,0,.68c.36.08.65-.23.63-.63a.7.7,0,0,0-.13-.42,1,1,0,0,0-.94-.36,1.18,1.18,0,0,0-.55.23,1.2,1.2,0,0,0-.16,1.71,2.38,2.38,0,0,0,1.93,1.09,1.53,1.53,0,0,0,.09.28,1.78,1.78,0,0,0,1.51,1,2.31,2.31,0,0,0,1.61-.37.23.23,0,0,0,.32-.24,4.88,4.88,0,0,0,.51-.51h0c.31-.36.6-.77.9-1.17.65-.87,1.1-2.08,2.2-2.53l.09,0-.11.06a3.29,3.29,0,0,0-.62.59,3.46,3.46,0,0,0-.82,1.42,14,14,0,0,0-.18,2.49,1.17,1.17,0,0,1-.39.8,1,1,0,0,1-.75.2c-.07,0-.31-.22-.21-.32-.21.07-.35-.11-.18-.31-.29-.11,0-.4.2-.35a.18.18,0,0,1,.14.24.12.12,0,0,1-.16.09h0c.07,0,.19,0,.2-.09a.24.24,0,0,0-.17-.31.43.43,0,0,0-.51.26c-.18.56.44,1,.93.94.86-.06,1-.64,1.07-1.31,0-.12,0-.25,0-.37a1,1,0,0,0,.26.43.69.69,0,0,0,1,0,.36.36,0,0,0,.1-.19.47.47,0,0,0-.19-.41.25.25,0,0,0-.37.11l.05,0a.21.21,0,0,1,.37.11.33.33,0,0,1,0,.22c-.22.37-.63.22-.85,0a2.12,2.12,0,0,1-.32-1.33c0-.13,0-.26,0-.39l0-.16a3.08,3.08,0,0,1,.11-.42,4,4,0,0,1,.73-1.28,2.38,2.38,0,0,0-.28.56,2.14,2.14,0,0,0,.8,2.49s-.86-.89-.22-1.3a1.31,1.31,0,0,1-.34-1.23,2.24,2.24,0,0,1,.9-1.28,2.58,2.58,0,0,1,.87-.27,1.64,1.64,0,0,1,1.57,1.15.94.94,0,0,1-.22.9.63.63,0,0,1-.65.09c-.29-.22-.12-.5.28-.31l0-.09,0,0a.42.42,0,0,0-.25-.07.32.32,0,0,0-.26.11c-.13.2,0,.4.22.49.61.28,1.15-.44,1.06-1a1.49,1.49,0,0,0-.25-.63h.1a.23.23,0,0,0,.19-.24,3,3,0,0,1-.14,4,1.51,1.51,0,0,1-.35.2,1.26,1.26,0,0,1-.34.08,2,2,0,0,1-1.67-.56h0a1.16,1.16,0,0,1-.27-.71,1.27,1.27,0,0,1,0-.3,1.29,1.29,0,0,1,.1-.29,1.21,1.21,0,0,1,.39-.47,1,1,0,0,1,.86-.08,1.26,1.26,0,0,1,.55.35.78.78,0,0,1,.15.27.8.8,0,0,1,0,.28.57.57,0,0,1-.07.26.45.45,0,0,1-.13.14h0a.38.38,0,0,1-.36.06.52.52,0,0,1-.28-.19.34.34,0,0,1-.05-.16A.35.35,0,1,0,296,440a.38.38,0,0,0-.21-.06.27.27,0,0,0-.11,0l-.05,0h0l-.08.08a.38.38,0,0,0-.06.12.43.43,0,0,0,0,.13.46.46,0,0,0,.07.27.7.7,0,0,0,.16.15.62.62,0,0,0,.43.11.65.65,0,0,0,.41-.86.88.88,0,0,0-.21-.37,1.4,1.4,0,0,0-.53-.37,1.36,1.36,0,0,0-.43-.09,1,1,0,0,0-.42.09l-.17.1h0a1.45,1.45,0,0,0-.58,1c-.13,1.2,1.13,1.69,2.11,1.61a1.52,1.52,0,0,0,.39-.08,1.8,1.8,0,0,0,.41-.22h0a2.18,2.18,0,0,0,.55-.7,3.46,3.46,0,0,0,.27-.87,3.47,3.47,0,0,0,.27.87,2.18,2.18,0,0,0,.55.7h0a1.81,1.81,0,0,0,.41.22,1.52,1.52,0,0,0,.39.08c1,.08,2.23-.41,2.11-1.61a1.45,1.45,0,0,0-.58-1h0l-.17-.1a1,1,0,0,0-.42-.09,1.36,1.36,0,0,0-.43.09,1.41,1.41,0,0,0-.53.37.87.87,0,0,0-.21.37.65.65,0,0,0,.41.86.63.63,0,0,0,.43-.11.7.7,0,0,0,.16-.15.46.46,0,0,0,.07-.27.42.42,0,0,0,0-.13.37.37,0,0,0-.06-.12l-.08-.08h0l-.05,0a.27.27,0,0,0-.11,0,.38.38,0,0,0-.21.06.35.35,0,1,0,.47.43.34.34,0,0,1-.05.16.52.52,0,0,1-.28.19.38.38,0,0,1-.36-.06h0a.45.45,0,0,1-.13-.14.57.57,0,0,1-.07-.26.82.82,0,0,1,.19-.55,1.26,1.26,0,0,1,.55-.35,1,1,0,0,1,.86.08,1.22,1.22,0,0,1,.39.47,1.3,1.3,0,0,1,.12.59,1.16,1.16,0,0,1-.27.71h0a2,2,0,0,1-1.67.56,1.26,1.26,0,0,1-.34-.08,1.52,1.52,0,0,1-.35-.2,3,3,0,0,1-.14-4,.23.23,0,0,0,.19.24h.1a1.49,1.49,0,0,0-.25.63c-.1.57.45,1.3,1.06,1,.18-.08.35-.29.22-.49a.32.32,0,0,0-.26-.11.42.42,0,0,0-.25.07l0,0,0,.09c.41-.19.58.08.28.31a.63.63,0,0,1-.65-.09.94.94,0,0,1-.22-.9,1.64,1.64,0,0,1,1.57-1.15,2.58,2.58,0,0,1,.87.27,2.24,2.24,0,0,1,.9,1.28,1.31,1.31,0,0,1-.34,1.23c.64.41-.22,1.3-.22,1.3a2.14,2.14,0,0,0,.8-2.49,2.39,2.39,0,0,0-.28-.56,4,4,0,0,1,.73,1.28,3.05,3.05,0,0,1,.11.42l0,.16c0,.13,0,.26,0,.39a2.12,2.12,0,0,1-.32,1.33c-.22.23-.64.38-.86,0a.33.33,0,0,1,0-.22.21.21,0,0,1,.37-.11l.05,0a.25.25,0,0,0-.37-.11.47.47,0,0,0-.19.41.36.36,0,0,0,.1.19.69.69,0,0,0,1,0,1,1,0,0,0,.26-.43c0,.12,0,.24,0,.37,0,.66.21,1.24,1.07,1.31.49,0,1.11-.38.93-.94a.43.43,0,0,0-.51-.26.24.24,0,0,0-.17.31c0,.07.13.11.2.09h0a.12.12,0,0,1-.16-.09.18.18,0,0,1,.14-.24c.17-.05.49.24.2.35.17.2,0,.39-.18.31.1.1-.14.31-.21.32a1,1,0,0,1-.75-.2,1.17,1.17,0,0,1-.39-.8,14,14,0,0,0-.18-2.49,3.46,3.46,0,0,0-.82-1.42,3.29,3.29,0,0,0-.63-.59l-.11-.06.09,0c1.09.45,1.55,1.66,2.2,2.53.3.4.59.81.9,1.17h0a4.82,4.82,0,0,0,.51.51.23.23,0,0,0,.32.24,2.31,2.31,0,0,0,1.61.37,1.78,1.78,0,0,0,1.51-1,1.54,1.54,0,0,0,.09-.28,2.38,2.38,0,0,0,1.93-1.09,1.2,1.2,0,0,0-.16-1.71A1.18,1.18,0,0,0,310,438a1,1,0,0,0-.94.36.7.7,0,0,0-.13.42c0,.4.27.7.63.63a.35.35,0,0,0,0-.68.43.43,0,0,0-.4.29c0,.1,0,0,0,0l0-.09a.82.82,0,0,1,0-.25h0v-.05a.63.63,0,0,1,.36-.37.72.72,0,0,1,.44-.07c.7.15.88.59.79,1.07a1.9,1.9,0,0,1-.25.63,2.16,2.16,0,0,1-1.65,1,1.74,1.74,0,0,0-.1-.79h0a1,1,0,0,0-1.18-.58.57.57,0,0,0-.38.74.39.39,0,0,0,.49.24h0c.11,0,.22-.13.21-.25s-.15-.2-.28-.16h0l0,0a.06.06,0,0,0,0,0s0,.05.08.06h.06l0,0c0,.06,0,.14,0,.16h0a.21.21,0,0,1-.18,0,.27.27,0,0,1-.14-.17h0a.42.42,0,0,1,.28-.53h0a.78.78,0,0,1,1,.53,1.26,1.26,0,0,1,0,.38,1.93,1.93,0,0,1,0,.33,4.84,4.84,0,0,1-1.74-.21,11,11,0,0,1-2.9-1.76,4.41,4.41,0,0,0,1.26.68,1.75,1.75,0,0,0,.38.06,1.85,1.85,0,0,0,1.52-.69h0a1.2,1.2,0,0,0,.18-1.16,1.12,1.12,0,0,0-.31-.46.66.66,0,0,0-.32-.16.7.7,0,0,0-.65.22h0a.5.5,0,0,0,.07.63.32.32,0,0,0,.12.07.5.5,0,0,0,.27,0c-.18.62-1.15.5-1.87.17.55.12,1.06,0,1.18-.55,0,0-.38.58-.69.15-.14.33-.77.27-1,0a1.09,1.09,0,0,0,.44,0s-.47,0-.32-.18a.71.71,0,0,1-.52,0l-.75-.53h0a3.42,3.42,0,0,0-1.95-.71l-.55,0a3.52,3.52,0,0,0-.5.08l-.37.11a2.79,2.79,0,0,0-1.75,2.22,2.79,2.79,0,0,0-1.75-2.22l-.37-.11a3.54,3.54,0,0,0-.5-.08l-.55,0a3.42,3.42,0,0,0-1.95.71h0l-.75.53a.71.71,0,0,1-.52,0c.15.21-.32.18-.32.18a1.09,1.09,0,0,0,.44,0c-.25.23-.88.28-1,0-.32.43-.69-.15-.69-.15ZM289.5,442a1.6,1.6,0,0,1-.46.09,1.94,1.94,0,0,1-1.84-.87,1.53,1.53,0,0,1-.08-.22,5.63,5.63,0,0,0,1.68-.21c1.32-.36,2.94-1.78,4.07-2.66-.43.52-.73,1.16-1.13,1.72a9.74,9.74,0,0,1-1.38,1.63.23.23,0,0,0-.34.21,1.66,1.66,0,0,1-.44.12,1.06,1.06,0,0,1-1-.35c-.37.49-1-.26-1-.26a1.73,1.73,0,0,0,1.93.8Zm-.49-4.11a.22.22,0,1,1,.44-.07.22.22,0,0,1,0,.1.28.28,0,0,0,0-.37.47.47,0,0,0-.35-.18.57.57,0,0,0-.36.13,1,1,0,0,0-.29.72,1,1,0,0,0,.2.59,1.61,1.61,0,0,0,1.73.6c1.06-.28,2.44-1.73,3.51-2.17a2.51,2.51,0,0,1,2.7.33.23.23,0,0,1,.19-.25h.07a2.22,2.22,0,0,0-.57-.41l-.34-.14-.35-.09-.39,0-.43,0c-1.7,0-2.87,1.84-4.48,2-.55.07-1.25,0-1.31-.77Zm12.88-.09a1.64,1.64,0,0,1,.28.34,2.65,2.65,0,0,0-.28-.34Zm4.35,4.2a1.73,1.73,0,0,0,1.93-.8s-.66.75-1,.26a1.06,1.06,0,0,1-1,.35,1.66,1.66,0,0,1-.44-.12.23.23,0,0,0-.35-.21,9.77,9.77,0,0,1-1.38-1.63c-.41-.56-.71-1.19-1.13-1.72,1.13.88,2.75,2.3,4.07,2.66a5.63,5.63,0,0,0,1.68.21,1.51,1.51,0,0,1-.08.22,1.94,1.94,0,0,1-1.84.87,1.6,1.6,0,0,1-.46-.09Zm.49-4.11a.22.22,0,1,0-.44-.07.21.21,0,0,0,0,.1.28.28,0,0,1,0-.37.47.47,0,0,1,.35-.18.57.57,0,0,1,.36.13,1,1,0,0,1,.29.72,1,1,0,0,1-.2.59,1.61,1.61,0,0,1-1.73.6c-1.06-.28-2.44-1.73-3.51-2.17a2.51,2.51,0,0,0-2.7.33.23.23,0,0,0-.19-.25h-.07a2.22,2.22,0,0,1,.57-.41l.34-.14.35-.09.39,0,.43,0c1.7,0,2.87,1.84,4.48,2,.55.07,1.25,0,1.31-.77Zm4.78.93,10.5-.07v-.05l-10.54-.07a1.86,1.86,0,0,1,0,.2Zm-.12,1,5.75-.07v-.05l-5.68-.07a1.78,1.78,0,0,1-.07.2Zm.12-.48,26.18-.07v-.05l-26.17-.07a1.82,1.82,0,0,1,0,.2Zm-27.29-.48-10.5-.07v-.05l10.54-.07a1.74,1.74,0,0,0,0,.2Zm.12,1-5.75-.07v-.05l5.68-.07A1.87,1.87,0,0,0,284.35,439.78Z" transform="translate(-236.1 -399.81)" fill="#1d1d1d" fill-rule="evenodd"/><rect x="0.39" y="39.29" width="47.73" height="0.2" fill="#1d1d1d"/><rect x="0.39" y="8.34" width="38.65" height="0.2" fill="#1d1d1d"/></svg>