<svg xmlns="http://www.w3.org/2000/svg" width="50" height="64" viewBox="0 0 329.3 429.5"><path fill="#985d60" d="M329.3 164.6A164.6 164.6 0 0 0 164.7 0C75 0 2.3 71.7.3 161H0l.2 2.3V169.5c2 107 123 220 164.5 260 117-94.8 151-182.7 160.7-229.6l1-5c1-5 1.6-9.6 2-13.5a105.3 105.3 0 0 0 1-17z"/><path fill="#fff" d="M276.8 100L166 67h-2.5l-110.8 33a4 4 0 0 0-3 4V186a155 155 0 0 0 78.6 134.8l34.3 19.4.4.2h3l.5-.2 34.3-19.4A155 155 0 0 0 279.5 186v-82a4 4 0 0 0-3-3.8zm-219 86v-79L160.6 76V88L72 114.2a4 4 0 0 0-2.8 4v67.6a135.5 135.5 0 0 0 68.6 117.8l22.6 13v13l-28.2-16A146.8 146.8 0 0 1 58 186zm213.6.2a146.8 146.8 0 0 1-74.6 127.5l-28.2 16v-13l22.7-12.8A135.5 135.5 0 0 0 260 186v-21a4 4 0 0 0-4-4 4 4 0 0 0-4 4v21a127.3 127.3 0 0 1-64.7 110.6l-22.7 12.8-22.8-13A127.3 127.3 0 0 1 77.4 186v-64.6l87.3-26 87.2 26.2V138a4 4 0 0 0 4 4 4 4 0 0 0 4-4v-19.5a4 4 0 0 0-2.8-4L168.8 88V76.2l102.6 31zm-77-66.5h-.6a22 22 0 0 0-18.6 10.6 12.2 12.2 0 0 1-10.4 5.8 12.2 12.2 0 0 1-10.4-5.7 22 22 0 0 0-18.7-10.6h-.6a33.8 33.8 0 0 0-32 43.8L114 199c0 14.2 3 35.5 9.6 49.8l14.6 31.6a10.6 10.6 0 0 0 9.8 7.2A10.5 10.5 0 0 0 159 277a4 4 0 0 0-.2-1c-2.8-10-8.6-38-1-48a8 8 0 0 1 7-3.2 8 8 0 0 1 6.7 3.2c7.4 9.8 1.8 38-1 48a4.2 4.2 0 0 0-.2 1 10.8 10.8 0 0 0 9.7 10.6h1a10.5 10.5 0 0 0 9.8-7l14.8-31.8c6.6-14.3 9.6-35.6 9.7-49.8l11.4-35.5a33.8 33.8 0 0 0-32.2-43.8zm24.2 41.3L207 197a4.3 4.3 0 0 0-.2 1.4c0 13.2-2.7 33.6-9 47l-14.7 32v.4a2.3 2.3 0 0 1-2.4 1.5 2.6 2.6 0 0 1-2-2c1.8-6.5 10.2-40.2-.5-54.4a16 16 0 0 0-13.3-6.5A16.3 16.3 0 0 0 151 223c-10.7 14.3-2 48-.4 54.5a2.2 2.2 0 0 1-.6 1.2 2.3 2.3 0 0 1-1.6.7 2.4 2.4 0 0 1-2.2-1.7l-.2-.5-14.7-31.8c-5.3-11.5-8-28.3-8.7-41.2a147.7 147.7 0 0 0 42 6.4h.2a145 145 0 0 0 31-3.5 4 4 0 1 0-1.8-8l-1 .3 4.7-11.6a4 4 0 1 0-7.7-3l-6.4 16.2a131.2 131.2 0 0 1-18.8 1.3 132.6 132.6 0 0 1-19.4-1.5l-6.4-16.2a4 4 0 0 0-7.7 3l4.5 11.5a130.8 130.8 0 0 1-14.2-3.8l-11-34.2a25.5 25.5 0 0 1 24.4-33h.6a13.8 13.8 0 0 1 11.7 6.6 20.4 20.4 0 0 0 17.4 9.7 20.4 20.4 0 0 0 17.4-9.7A14 14 0 0 1 194 128h.5a25.5 25.5 0 0 1 24.3 33zm0 0"/></svg>
