<svg xmlns="http://www.w3.org/2000/svg" viewBox="0 0 512 512">
<g fill="#fe7"><path d="M256 59c26.6 0 52.4 5.2 76.68 15.47 23.45 9.93 44.52 24.13 62.62 42.23 18.1 18.1 32.3 39.17 42.23 62.62C447.8 203.6 453 229.4 453 256c0 26.6-5.2 52.4-15.47 76.68-9.93 23.45-24.13 44.52-42.23 62.62-18.1 18.1-39.17 32.3-62.62 42.23C308.4 447.8 282.6 453 256 453c-26.6 0-52.4-5.2-76.68-15.47-23.45-9.93-44.52-24.13-62.62-42.23-18.1-18.1-32.3-39.17-42.22-62.62C64.2 308.4 59 282.6 59 256c0-26.6 5.2-52.4 15.47-76.68 9.93-23.45 24.13-44.52 42.23-62.62 18.1-18.1 39.17-32.3 62.62-42.22C203.6 64.2 229.4 59 256 59m0-16C138.36 43 43 138.36 43 256s95.36 213 213 213 213-95.36 213-213S373.64 43 256 43z"/><path d="M211 351c-1.25 0-2.5-.3-3.66-.9-2.67-1.36-4.34-4.1-4.34-7.1V169c0-3 1.67-5.74 4.34-7.1 2.66-1.4 5.87-1.15 8.3.6l122 87c2.1 1.5 3.36 3.9 3.36 6.5s-1.25 5-3.35 6.5l-122 87c-1.4 1-3.02 1.5-4.65 1.5zm8-166.47v142.94L319.22 256 219 184.53z"/></g></svg>