<svg xmlns="http://www.w3.org/2000/svg" width="38" height="38" viewBox="0 0 38 38"><defs><linearGradient id="a" x1="8.04%" x2="65.68%" y1="0%" y2="23.86%"><stop stop-color="#985d60" stop-opacity="0" offset="0%"/><stop stop-color="#985d60" stop-opacity=".63" offset="63.15%"/><stop stop-color="#985d60" offset="100%"/></linearGradient></defs><svg xmlns="http://www.w3.org/2000/svg" width="38" height="38" viewBox="0 0 38 38"><path fill="#985d60" d="M27.8 10.9l-8.7-2.6h-.2l-8.7 2.6a.3.3 0 0 0-.2.3v6.4a12.1 12.1 0 0 0 6.1 10.6l2.7 1.5h.3l2.7-1.5A12.1 12.1 0 0 0 28 17.6v-6.4a.3.3 0 0 0-.2-.3zm-17.2 6.7v-6.2l8-2.4v.9L11.8 12a.3.3 0 0 0-.2.3v5.3a10.6 10.6 0 0 0 5.4 9.2l1.8 1v1l-2.2-1.2a11.5 11.5 0 0 1-5.8-10zm16.7 0a11.5 11.5 0 0 1-5.8 10l-2.2 1.2v-1l1.8-1a10.6 10.6 0 0 0 5.4-9.2V16a.3.3 0 0 0-.3-.3.3.3 0 0 0-.3.3v1.6a10 10 0 0 1-5.1 8.7l-1.8 1-1.8-1a10 10 0 0 1-5-8.7v-5l6.8-2 6.8 2.1V14a.3.3 0 0 0 .3.3.3.3 0 0 0 .3-.3v-1.7a.3.3 0 0 0-.2-.3l-6.9-2.1V9l8 2.4zm-6-5.2a1.7 1.7 0 0 0-1.5.8 1 1 0 0 1-.8.5 1 1 0 0 1-.8-.5 1.7 1.7 0 0 0-1.5-.8 2.6 2.6 0 0 0-2.5 3.4l.9 2.8a10.5 10.5 0 0 0 .8 3.9l1 2.5a.8.8 0 0 0 .8.6l.6-.2a.8.8 0 0 0 .2-.6c-.2-.8-.7-3-.1-3.8a.6.6 0 0 1 .5-.3.6.6 0 0 1 .5.2c.6.8.1 3-.1 3.7a.8.8 0 0 0 .8.8h.1a.8.8 0 0 0 .8-.4l1.2-2.5a10.5 10.5 0 0 0 .8-3.9l.9-2.8a2.6 2.6 0 0 0-2.5-3.4zm1.9 3.2l-.9 2.8a9.9 9.9 0 0 1-.7 3.7l-1.2 2.5h-.2l-.2-.2c.1-.5.8-3.1 0-4.3a1.3 1.3 0 0 0-1-.5 1.3 1.3 0 0 0-1.1.5c-.8 1.1-.2 3.8 0 4.3h-.4l-1.2-2.5a9.5 9.5 0 0 1-.7-3.2 11.6 11.6 0 0 0 3.3.5l2.4-.3a.3.3 0 1 0-.1-.6h-.1l.4-.9a.3.3 0 1 0-.6-.2l-.5 1.3h-3l-.4-1a.3.3 0 0 0-.6.2l.4.9-1.1-.3-.9-2.7a2 2 0 0 1 1.9-2.6 1.1 1.1 0 0 1 .9.5 1.6 1.6 0 0 0 1.4.8 1.6 1.6 0 0 0 1.4-.8 1.1 1.1 0 0 1 .9-.5 2 2 0 0 1 1.9 2.6zm0 0"/></svg><g fill="none" fill-rule="evenodd" transform="translate(1 1)"><path stroke="url(#a)" stroke-width="2" d="M36 18c0-9.94-8.06-18-18-18"><animateTransform attributeName="transform" type="rotate" from="0 18 18" to="360 18 18" dur="0.9s" repeatCount="indefinite"/></path><circle cx="36" cy="18" r="1" fill="#985d60"><animateTransform attributeName="transform" type="rotate" from="0 18 18" to="360 18 18" dur="0.9s" repeatCount="indefinite"/></circle></g></svg>